<?xml version="1.0" standalone="no"?>
<!DOCTYPE svg PUBLIC "-//W3C//DTD SVG 20010904//EN"
 "http://www.w3.org/TR/2001/REC-SVG-20010904/DTD/svg10.dtd">
<svg version="1.0" xmlns="http://www.w3.org/2000/svg"
 width="512.000000pt" height="512.000000pt" viewBox="0 0 512.000000 512.000000"
 preserveAspectRatio="xMidYMid meet">
<metadata>
Created by potrace 1.14, written by Peter Selinger 2001-2017
</metadata>
<g transform="translate(0.000000,512.000000) scale(0.100000,-0.100000)"
fill="#000000" stroke="none">
<path d="M737 4552 c-17 -2 -25 -8 -21 -14 4 -7 2 -8 -4 -4 -19 11 -71 -34
-83 -73 -25 -73 -12 -135 23 -115 10 5 10 4 1 -6 -10 -11 -15 -11 -28 0 -14
11 -15 8 -12 -31 3 -28 9 -43 16 -41 7 1 10 -2 6 -8 -3 -6 -11 -8 -16 -5 -15
10 -10 -11 6 -25 8 -6 20 -8 27 -4 10 5 10 4 1 -6 -10 -11 -15 -11 -28 0 -14
11 -15 8 -12 -31 3 -28 9 -43 16 -41 7 1 10 -2 6 -8 -3 -6 -11 -8 -16 -5 -5 4
-9 2 -9 -3 0 -14 26 -33 33 -25 4 3 7 1 7 -5 0 -15 -13 -15 -28 0 -10 10 -12
3 -9 -32 3 -28 9 -44 16 -42 7 1 10 -2 6 -8 -3 -6 -11 -8 -16 -5 -5 4 -9 2 -9
-3 0 -14 26 -33 33 -25 4 3 7 1 7 -5 0 -15 -13 -15 -28 0 -10 10 -12 3 -9 -32
3 -28 9 -44 16 -42 7 1 10 -2 6 -8 -3 -6 -11 -8 -16 -5 -15 10 -10 -11 6 -25
8 -6 20 -8 27 -4 10 5 10 4 1 -6 -10 -11 -15 -11 -28 0 -12 10 -15 10 -15 -2
0 -8 6 -20 13 -27 10 -11 10 -13 0 -7 -16 9 -16 1 -2 -26 8 -15 8 -19 0 -14
-14 9 -14 0 0 -26 8 -15 8 -19 0 -14 -6 4 -11 4 -11 1 0 -4 5 -16 11 -27 8
-15 8 -19 0 -14 -6 4 -11 4 -11 1 0 -4 5 -16 11 -27 8 -15 8 -19 0 -14 -6 4
-11 4 -11 1 0 -4 5 -16 11 -27 8 -15 8 -19 0 -14 -6 4 -11 4 -11 1 0 -4 5 -16
11 -27 8 -15 8 -19 0 -14 -6 4 -11 4 -11 1 0 -4 5 -16 11 -27 8 -15 8 -19 0
-14 -14 9 -14 0 0 -26 8 -15 8 -19 0 -14 -14 9 -14 0 0 -26 8 -15 8 -19 0 -14
-6 4 -11 4 -11 1 0 -4 5 -16 11 -27 8 -15 8 -19 0 -14 -6 4 -11 4 -11 1 0 -4
5 -16 11 -27 8 -15 8 -19 0 -14 -14 9 -14 0 0 -26 8 -15 8 -19 0 -14 -6 4 -11
4 -11 1 0 -4 5 -16 11 -27 8 -15 8 -19 0 -14 -14 9 -14 0 0 -26 8 -15 8 -19 0
-14 -14 9 -14 0 0 -26 8 -15 8 -19 0 -14 -7 5 -10 -1 -7 -16 2 -13 9 -22 16
-20 6 1 9 -2 5 -8 -3 -6 -11 -8 -16 -5 -14 9 -11 -11 4 -24 8 -6 18 -7 22 -3
5 4 5 1 1 -6 -6 -10 -11 -10 -22 -1 -12 10 -14 5 -11 -32 3 -28 9 -43 16 -41
7 1 10 -2 6 -8 -3 -6 -11 -8 -16 -5 -15 10 -10 -7 9 -29 16 -20 16 -20 -1 -7
-16 13 -17 11 -14 -30 3 -28 9 -43 16 -41 7 1 10 -2 6 -8 -3 -6 -11 -8 -16 -5
-15 10 -10 -7 8 -29 17 -20 17 -20 0 -7 -16 13 -17 11 -14 -30 3 -28 9 -43 16
-41 7 1 10 -2 6 -8 -3 -6 -11 -8 -16 -5 -15 10 -10 -7 9 -29 16 -20 16 -20 -1
-7 -16 13 -17 11 -14 -30 3 -33 8 -43 20 -41 8 1 18 -1 21 -6 3 -5 -6 -8 -19
-6 -30 3 -31 -2 -7 -30 16 -20 16 -20 -1 -7 -16 13 -17 11 -14 -30 3 -33 8
-43 20 -41 8 1 18 -1 21 -6 3 -5 -6 -8 -19 -6 -30 3 -31 -2 -7 -30 16 -20 16
-20 -1 -7 -16 13 -17 11 -14 -30 3 -28 9 -43 16 -41 7 1 10 -2 6 -8 -3 -6 -11
-8 -16 -5 -15 10 -10 -7 9 -29 16 -20 16 -20 -1 -7 -16 13 -17 11 -14 -30 3
-28 9 -43 16 -41 7 1 10 -2 6 -8 -3 -6 -11 -8 -16 -5 -15 10 -10 -7 8 -29 17
-20 17 -20 0 -7 -16 13 -17 11 -14 -30 3 -33 8 -43 20 -41 8 1 18 -1 21 -6 3
-5 -6 -8 -19 -6 -30 3 -31 -2 -8 -30 17 -20 17 -20 0 -7 -16 13 -17 11 -14
-30 3 -33 8 -43 20 -41 8 1 18 -1 21 -6 3 -5 -6 -8 -19 -6 -21 2 -24 -2 -23
-22 1 -13 6 -24 10 -24 4 0 8 -5 8 -11 0 -5 -4 -7 -10 -4 -6 4 -9 -5 -8 -19 1
-15 7 -26 13 -26 5 0 5 -4 -2 -8 -12 -8 -14 -52 -3 -52 4 0 7 -7 7 -15 0 -8
-4 -12 -9 -9 -11 7 -10 -3 3 -28 8 -15 8 -19 0 -14 -14 9 -14 0 0 -26 8 -15 8
-19 0 -14 -14 9 -14 0 0 -26 8 -15 8 -19 0 -14 -6 4 -11 4 -11 1 0 -4 5 -16
11 -27 8 -15 8 -19 0 -14 -6 4 -11 4 -11 1 0 -4 5 -16 11 -27 8 -15 8 -19 0
-14 -6 4 -11 4 -11 1 0 -4 5 -16 11 -27 8 -15 8 -19 0 -14 -14 9 -14 0 0 -26
8 -15 8 -19 0 -14 -14 9 -14 0 0 -26 8 -15 8 -19 0 -14 -14 9 -14 0 0 -26 8
-15 8 -19 0 -14 -14 9 -14 0 0 -26 8 -15 8 -19 0 -14 -14 9 -14 0 0 -26 8 -15
8 -19 0 -14 -14 9 -14 0 0 -26 8 -15 8 -19 0 -14 -6 4 -11 4 -11 1 0 -4 5 -16
11 -27 8 -15 8 -19 0 -14 -6 4 -11 4 -11 1 0 -4 5 -16 11 -27 8 -15 8 -19 0
-14 -14 9 -14 0 0 -26 8 -15 8 -19 0 -14 -7 5 -10 -1 -7 -16 2 -14 9 -22 19
-20 8 1 18 -1 21 -6 3 -5 -6 -8 -19 -6 -30 3 -31 -2 -7 -30 16 -20 16 -20 -1
-7 -16 13 -17 11 -14 -30 3 -38 7 -44 25 -43 12 1 19 -2 17 -7 -3 -4 -14 -6
-25 -4 -11 2 -20 0 -20 -5 0 -9 20 -25 32 -25 3 0 9 -3 13 -7 9 -9 -17 -5 -33
5 -9 7 -11 -2 -9 -35 3 -37 7 -43 25 -42 12 1 19 -2 17 -7 -3 -4 -14 -6 -25
-4 -11 2 -20 0 -20 -5 0 -9 20 -25 32 -25 3 0 9 -3 13 -7 9 -9 -17 -5 -33 5
-9 7 -11 -2 -9 -35 3 -33 8 -42 20 -40 10 2 17 -2 17 -7 0 -5 -9 -8 -20 -6
-16 3 -19 -1 -18 -21 1 -13 6 -24 10 -24 4 0 8 -5 8 -11 0 -5 -5 -7 -11 -3
-14 8 -8 -38 6 -48 6 -5 5 -8 -2 -8 -7 0 -13 -5 -13 -11 0 -5 5 -7 10 -4 6 3
10 2 10 -4 0 -5 -6 -12 -13 -14 -9 -4 -8 -8 3 -16 10 -7 11 -11 3 -11 -7 0
-13 -5 -13 -11 0 -5 5 -7 12 -3 8 5 9 2 5 -10 -9 -22 28 -86 49 -86 9 0 12 -4
9 -10 -6 -9 10 -14 43 -13 6 1 12 -3 12 -8 0 -5 5 -9 11 -9 5 0 7 6 3 12 -6
10 -4 10 7 2 20 -17 402 -17 393 -1 -5 9 -4 9 6 0 15 -14 43 -5 33 11 -4 6 1
5 10 -3 16 -12 22 -8 18 12 -1 5 3 6 9 2 13 -8 67 51 72 80 3 13 0 31 -5 40
-7 13 -6 16 2 11 14 -9 14 0 0 26 -8 15 -8 19 0 14 6 -4 11 0 11 9 0 9 -4 14
-8 11 -5 -3 -9 1 -9 9 0 8 4 12 9 9 11 -7 10 3 -3 28 -8 15 -8 19 0 14 6 -4
11 0 11 9 0 9 -4 14 -8 11 -5 -3 -9 1 -9 9 0 8 4 12 9 9 11 -7 10 3 -3 28 -8
15 -8 19 0 14 6 -4 11 0 11 9 0 9 -4 14 -8 11 -5 -3 -9 1 -9 9 0 8 4 12 9 9
11 -7 10 3 -3 28 -8 15 -8 19 0 14 6 -4 11 0 11 9 0 9 -4 14 -8 11 -5 -3 -9 1
-9 9 0 8 4 12 9 9 11 -7 10 3 -3 28 -8 15 -8 19 0 14 6 -4 11 0 11 9 0 9 -4
14 -8 11 -5 -3 -9 1 -9 9 0 8 4 12 9 9 11 -7 10 3 -3 28 -8 15 -8 19 0 14 6
-4 11 0 11 9 0 9 -4 14 -8 11 -5 -3 -9 1 -9 9 0 8 4 12 9 9 11 -7 10 3 -3 28
-8 15 -8 19 0 14 14 -9 10 96 -4 106 -6 5 -5 8 3 8 6 0 12 5 12 11 0 5 -6 7
-12 3 -9 -5 -9 -2 1 9 11 14 11 17 0 17 -9 0 -10 3 -3 8 5 4 10 18 10 32 0 14
-5 28 -10 32 -7 5 -7 8 2 8 6 0 12 5 12 11 0 5 -5 7 -12 3 -7 -5 -8 -3 -2 7
12 19 11 82 -1 91 -6 5 -5 8 3 8 6 0 12 5 12 11 0 5 -6 7 -12 3 -9 -5 -9 -2 1
9 11 14 11 17 0 17 -9 0 -10 3 -3 8 13 9 13 55 0 64 -7 5 -7 8 2 8 6 0 12 5
12 11 0 5 -5 7 -12 3 -7 -5 -8 -3 -2 7 12 19 11 82 -1 91 -6 5 -5 8 3 8 6 0
12 5 12 11 0 5 -6 7 -12 3 -9 -5 -9 -2 1 9 11 14 11 17 0 17 -9 0 -10 3 -3 8
5 4 10 18 10 32 0 14 -5 28 -10 32 -7 5 -7 8 2 8 6 0 12 5 12 11 0 5 -5 7 -12
3 -7 -5 -8 -3 -2 7 12 19 11 82 -1 91 -6 5 -5 8 3 8 6 0 12 5 12 11 0 5 -6 7
-12 3 -9 -5 -9 -2 1 9 11 14 11 17 0 17 -9 0 -10 3 -3 8 13 9 13 55 0 64 -7 5
-7 8 2 8 6 0 12 5 12 11 0 5 -6 7 -12 3 -10 -6 -10 -4 -2 7 11 15 12 84 1 95
-4 4 -7 12 -7 18 0 6 4 5 9 -3 6 -9 9 10 8 55 -1 38 -6 72 -11 75 -21 15 8 25
68 24 37 0 66 3 66 7 0 4 5 8 11 8 5 0 8 -3 6 -7 -3 -5 28 -8 69 -8 41 0 74 3
74 7 0 5 5 8 11 8 5 0 8 -3 6 -7 -3 -5 28 -8 69 -8 41 0 74 3 74 7 0 5 5 8 11
8 5 0 8 -3 6 -7 -3 -5 28 -8 69 -8 41 0 74 3 74 7 0 5 5 8 11 8 5 0 8 -3 6 -7
-3 -5 28 -8 69 -8 41 0 74 3 74 7 0 5 5 8 11 8 5 0 8 -3 6 -7 -3 -5 28 -8 69
-8 41 0 74 3 74 7 0 5 5 8 11 8 5 0 8 -3 5 -8 -2 -4 28 -7 67 -7 52 0 76 4 85
15 9 12 12 12 10 1 -2 -9 8 -14 27 -15 38 -3 95 12 95 24 0 6 5 10 11 10 25 0
75 77 74 115 -1 11 -7 19 -14 17 -7 -1 -10 2 -6 8 3 6 11 8 16 5 5 -4 9 1 9
10 0 10 -5 13 -12 9 -8 -5 -8 -3 -2 7 13 20 12 182 0 191 -8 5 -7 8 1 8 16 0
8 121 -10 132 -6 4 -9 8 -4 8 4 0 0 11 -9 25 -17 27 -71 58 -85 49 -5 -3 -9 1
-9 8 0 9 -3 9 -10 -2 -6 -10 -10 -11 -10 -2 0 6 -7 12 -16 12 -8 0 -13 -4 -10
-8 3 -5 -1 -9 -9 -9 -8 0 -12 3 -10 7 7 12 -129 7 -137 -4 -5 -7 -8 -7 -8 2 0
6 -5 12 -11 12 -5 0 -7 -6 -3 -12 5 -8 1 -8 -10 1 -15 13 -19 13 -27 0 -6 -10
-9 -10 -9 -1 0 6 -5 12 -11 12 -5 0 -8 -4 -5 -9 3 -5 -2 -15 -12 -22 -15 -13
-16 -12 -3 4 16 20 18 19 -41 23 -32 2 -48 -1 -48 -9 0 -8 -3 -8 -9 1 -9 14
-32 13 -43 -3 -5 -6 -8 -5 -8 3 0 6 -5 12 -11 12 -6 0 -8 -8 -5 -17 6 -17 5
-17 -8 0 -15 20 -31 23 -20 5 6 -10 4 -10 -7 0 -15 14 -33 17 -25 4 3 -5 -1
-9 -9 -9 -8 0 -12 4 -9 8 7 12 -50 6 -58 -6 -5 -6 -8 -5 -8 3 0 6 -5 12 -11
12 -6 0 -8 -8 -5 -17 6 -17 5 -17 -8 0 -15 20 -31 23 -20 5 6 -10 4 -10 -7 0
-15 14 -33 17 -25 4 3 -5 -1 -9 -9 -9 -8 0 -12 3 -10 7 7 12 -129 7 -137 -4
-5 -7 -8 -7 -8 2 0 6 -5 12 -11 12 -5 0 -7 -6 -3 -12 5 -8 1 -8 -10 1 -15 13
-19 13 -27 0 -6 -10 -9 -10 -9 -1 0 6 -5 12 -11 12 -5 0 -8 -4 -5 -9 3 -5 -2
-15 -12 -22 -15 -13 -16 -12 -3 4 16 20 18 19 -39 22 -26 2 -48 -2 -52 -9 -5
-7 -8 -7 -8 0 0 6 -16 11 -35 11 -28 0 -35 -4 -30 -16 3 -10 0 -9 -10 4 -13
17 -18 18 -36 7 -12 -8 -18 -9 -14 -3 3 6 2 11 -4 11 -5 0 -12 -6 -15 -12 -3
-7 -3 -1 -1 14 2 15 -2 29 -8 32 -9 3 -9 5 1 5 6 1 12 6 12 12 0 5 -5 7 -12 3
-7 -5 -8 -3 -2 7 12 19 11 82 -1 91 -6 5 -5 8 3 8 6 0 12 5 12 11 0 5 -6 7
-12 3 -9 -5 -9 -2 1 9 11 14 11 17 0 17 -9 0 -10 3 -3 8 5 4 10 18 10 32 0 14
-5 28 -10 32 -7 5 -7 8 2 8 6 0 12 5 12 11 0 5 -5 7 -12 3 -7 -5 -8 -3 -2 7
12 19 11 82 -1 91 -6 5 -5 8 3 8 6 0 12 5 12 11 0 5 -6 7 -12 3 -9 -5 -9 -2 1
9 11 14 11 17 0 17 -9 0 -10 3 -3 8 5 4 10 18 10 32 0 14 -5 28 -10 32 -7 5
-7 8 2 8 6 0 12 5 12 11 0 5 -5 7 -12 3 -7 -5 -8 -3 -2 7 12 19 11 82 -1 91
-6 5 -5 8 3 8 6 0 12 5 12 11 0 5 -6 7 -12 3 -10 -6 -10 -4 0 8 10 13 10 17 0
21 -10 4 -10 6 0 6 6 1 12 6 12 12 0 5 -4 8 -8 5 -5 -3 -9 1 -9 9 0 8 4 12 9
9 11 -7 10 3 -3 28 -7 12 -7 18 -1 14 6 -3 12 -1 14 6 3 7 30 10 82 9 52 -2
83 2 94 11 11 9 14 10 8 1 -5 -9 1 -13 18 -13 14 0 26 6 26 13 0 9 2 9 8 -1 6
-9 33 -12 90 -11 80 1 90 5 75 25 -5 5 -1 2 8 -7 12 -14 37 -17 123 -18 75 -1
113 3 124 11 12 10 14 10 8 1 -5 -9 1 -13 18 -13 14 0 26 6 26 13 0 9 2 9 8 0
10 -16 400 -17 421 0 12 9 13 9 7 0 -5 -9 0 -13 18 -13 13 0 27 6 29 13 4 10
6 10 6 0 1 -8 16 -13 44 -13 31 0 38 3 27 10 -9 6 -10 10 -3 10 6 0 14 -4 17
-8 3 -5 57 -9 121 -10 64 -1 114 2 111 7 -3 4 1 8 9 8 8 0 12 -3 10 -7 -2 -4
12 -7 33 -8 27 -1 33 1 22 8 -9 6 -10 10 -3 10 6 0 14 -4 17 -9 3 -5 42 -8 86
-7 74 1 80 0 80 -19 0 -12 6 -27 13 -34 8 -9 8 -12 0 -7 -17 9 -11 -77 7 -100
14 -18 14 -18 -4 -4 -17 13 -18 13 -14 -5 2 -11 10 -19 17 -17 7 1 10 -2 6 -8
-3 -6 -11 -8 -16 -5 -14 9 -11 -39 4 -54 10 -11 10 -13 0 -7 -9 5 -13 0 -13
-14 0 -14 4 -19 13 -14 8 5 8 2 -2 -9 -11 -14 -11 -20 0 -34 8 -9 9 -14 3 -10
-8 5 -11 -7 -10 -41 1 -33 5 -46 14 -44 8 1 11 -2 7 -8 -3 -6 -11 -8 -16 -5
-14 9 -11 -79 4 -94 10 -11 10 -13 0 -7 -9 5 -13 0 -13 -14 0 -14 4 -19 12
-14 10 6 10 4 0 -8 -17 -21 -12 -94 6 -90 8 1 11 -2 7 -8 -3 -6 -11 -8 -16 -5
-14 9 -11 -79 4 -94 10 -11 10 -13 0 -7 -9 5 -13 0 -13 -14 0 -14 4 -19 12
-14 11 6 11 4 1 -7 -17 -17 -17 -101 -1 -118 10 -11 10 -13 1 -7 -9 5 -13 0
-13 -14 0 -14 4 -19 13 -14 10 6 10 4 0 -7 -7 -7 -13 -34 -13 -59 0 -25 6 -52
13 -59 10 -11 10 -13 0 -7 -9 5 -13 0 -13 -14 0 -14 4 -19 13 -14 10 6 10 4 0
-7 -7 -7 -13 -34 -13 -59 0 -25 6 -52 13 -59 10 -11 10 -13 0 -7 -9 5 -13 0
-13 -14 0 -14 4 -19 13 -14 10 6 10 4 0 -7 -7 -7 -13 -34 -13 -59 0 -25 6 -52
13 -59 10 -11 10 -13 0 -7 -9 5 -13 0 -13 -14 0 -14 4 -19 13 -14 10 6 10 4 0
-7 -7 -7 -13 -34 -13 -59 0 -25 6 -52 13 -59 10 -11 10 -13 0 -7 -9 5 -13 0
-13 -14 0 -14 4 -19 13 -14 10 6 10 4 0 -7 -7 -7 -13 -34 -13 -59 0 -25 6 -52
13 -59 10 -11 10 -13 0 -7 -9 5 -13 0 -13 -14 0 -14 4 -19 13 -14 10 6 10 4 0
-7 -7 -7 -13 -34 -13 -59 0 -25 6 -52 13 -59 10 -11 10 -13 0 -7 -9 5 -13 0
-13 -14 0 -14 4 -19 12 -14 10 6 10 4 0 -8 -17 -21 -12 -94 6 -90 8 1 11 -2 7
-8 -3 -6 -11 -8 -16 -5 -14 9 -11 -79 4 -94 8 -9 8 -12 0 -7 -17 9 -11 -77 7
-100 14 -18 14 -18 -4 -4 -17 13 -18 13 -14 -5 2 -11 10 -19 17 -17 7 1 10 -2
6 -8 -3 -6 -11 -8 -16 -5 -14 9 -11 -39 4 -54 10 -11 10 -13 0 -7 -9 5 -13 0
-13 -14 0 -14 4 -19 13 -14 8 5 8 2 -2 -9 -11 -14 -11 -20 0 -34 8 -9 9 -14 3
-10 -8 5 -11 -7 -10 -41 1 -33 5 -46 14 -44 8 1 11 -2 7 -8 -3 -6 -11 -8 -16
-5 -14 9 -11 -79 4 -94 10 -11 9 -13 -1 -7 -10 6 -11 -2 -6 -36 8 -55 27 -94
43 -90 7 1 9 -2 6 -8 -9 -15 25 -39 44 -32 9 3 12 1 7 -6 -8 -14 -11 -13 220
-15 88 0 166 3 174 8 8 5 11 4 7 -3 -7 -10 19 -7 53 6 8 3 17 6 20 6 11 3 55
30 65 40 19 19 31 55 39 109 3 23 0 27 -13 23 -14 -5 -14 -5 -1 6 11 10 15 35
15 96 1 45 -3 82 -8 82 -4 0 -5 6 0 12 10 18 10 228 -1 228 -4 0 -4 6 3 13 8
10 7 17 -1 25 -9 9 -9 12 2 12 9 0 5 9 -11 28 -13 15 -17 21 -9 15 8 -7 17
-13 20 -13 10 0 6 75 -5 82 -6 5 -4 8 5 8 13 0 13 1 0 10 -8 5 -10 10 -4 10 5
0 10 11 10 25 0 14 -4 25 -9 25 -4 0 -5 6 0 12 10 17 10 228 0 228 -4 0 -5 6
-1 12 15 24 12 49 -5 43 -14 -4 -14 -4 -1 7 11 10 15 35 15 96 1 45 -3 82 -8
82 -4 0 -5 6 0 12 10 17 10 148 0 148 -5 0 -5 6 0 12 10 17 10 228 0 228 -4 0
-5 6 -1 12 15 24 12 49 -5 43 -14 -4 -14 -4 -1 7 11 10 15 35 15 96 1 45 -3
82 -8 82 -4 0 -5 6 0 12 10 18 10 228 -1 228 -4 0 -4 6 3 13 8 10 7 17 -1 25
-9 9 -9 12 2 12 9 0 5 9 -11 28 -13 15 -17 21 -9 15 8 -7 17 -13 20 -13 10 0
6 75 -5 82 -6 5 -4 8 5 8 13 0 13 1 0 10 -8 5 -10 10 -4 10 5 0 10 11 10 25 0
14 -4 25 -9 25 -4 0 -5 6 0 12 10 17 10 228 0 228 -4 0 -5 6 -1 12 15 24 12
49 -5 43 -14 -5 -13 -3 1 11 16 16 16 18 0 31 -9 8 -11 12 -4 8 6 -3 12 -3 12
2 0 4 25 6 55 5 36 -3 61 1 72 10 12 9 15 9 9 1 -5 -9 1 -13 18 -13 14 0 26 6
26 13 0 9 2 9 8 0 10 -16 400 -17 421 0 12 9 13 9 7 0 -5 -9 1 -13 18 -13 14
0 26 6 26 13 0 9 2 9 9 -1 6 -10 30 -13 90 -11 44 2 81 6 81 9 0 3 -6 13 -12
21 -7 7 -2 4 11 -8 l25 -22 37 21 c20 11 47 39 60 61 24 44 32 107 15 120 -8
5 -8 9 -1 15 12 8 13 82 0 101 -5 9 -4 12 3 7 12 -7 11 12 -2 33 -6 9 -5 12 2
7 7 -4 10 1 9 14 -1 11 -6 20 -12 20 -5 0 -3 5 5 10 10 6 11 10 3 10 -7 0 -13
5 -13 11 0 5 6 7 13 3 9 -6 9 -4 -1 8 -8 10 -9 17 -3 20 12 4 -7 88 -20 88 -5
0 -9 5 -9 10 0 11 -22 36 -52 58 -23 18 -80 34 -72 20 5 -7 2 -8 -7 -2 -24 14
-51 16 -43 2 6 -10 4 -10 -7 -2 -19 14 -185 11 -182 -3 1 -6 -4 -17 -13 -24
-12 -10 -18 -9 -30 3 -11 11 -13 18 -5 23 7 4 10 1 9 -7 -2 -7 3 -13 11 -13 8
0 15 8 17 17 2 14 -8 16 -74 13 -46 -1 -76 -7 -75 -13 1 -5 -4 -16 -13 -23
-12 -10 -18 -9 -30 3 -11 11 -13 18 -5 23 7 4 10 1 9 -7 -2 -7 3 -13 11 -13 8
0 15 8 17 17 2 14 -8 16 -74 13 -46 -1 -76 -7 -75 -13 1 -5 -4 -16 -13 -23
-12 -10 -18 -9 -30 3 -11 11 -13 18 -5 23 7 4 10 1 9 -7 -2 -7 3 -13 11 -13 8
0 15 8 17 17 2 14 -8 16 -72 14 -41 -1 -74 -7 -75 -12 0 -5 -7 -16 -15 -25 -8
-9 -11 -19 -7 -22 3 -4 1 -7 -5 -7 -15 0 -15 13 0 28 6 6 13 18 14 25 3 19
-94 15 -108 -4 -8 -11 -9 -10 -4 4 4 12 2 17 -6 15 -7 -3 -13 -10 -13 -16 0
-5 -3 -14 -7 -18 -4 -3 -6 3 -3 15 2 11 0 21 -6 21 -5 0 -9 -6 -9 -12 0 -8 -3
-9 -8 -3 -8 12 -81 13 -101 1 -9 -6 -12 -5 -8 1 7 12 -213 10 -232 -2 -9 -5
-12 -4 -8 2 7 12 -213 10 -232 -2 -9 -5 -12 -4 -8 2 7 12 -213 10 -232 -2 -9
-5 -12 -4 -8 2 7 12 -213 10 -232 -2 -9 -5 -12 -4 -8 2 4 6 -32 9 -96 8 -70 0
-102 -4 -102 -12 0 -7 -6 -18 -13 -25 -10 -10 -15 -9 -28 4 -11 11 -13 18 -5
23 7 4 10 1 9 -7 -2 -7 3 -13 11 -13 8 0 15 8 17 17 2 14 -8 16 -74 14 -48 -2
-77 -7 -77 -14 0 -6 -6 -17 -13 -24 -10 -10 -15 -9 -28 4 -11 11 -13 18 -5 23
7 4 10 1 9 -7 -2 -7 3 -13 11 -13 8 0 15 8 17 17 2 14 -8 16 -74 14 -48 -2
-77 -7 -77 -14 0 -6 -6 -17 -13 -24 -10 -10 -15 -9 -28 4 -11 11 -13 18 -5 23
7 4 10 1 9 -7 -2 -7 3 -13 11 -13 8 0 15 8 17 17 2 14 -8 16 -72 14 -41 -1
-74 -7 -75 -12 -1 -14 -20 -34 -33 -34 -6 0 -5 4 3 9 32 20 20 38 -24 37 -27
0 -41 -4 -37 -11 4 -7 1 -7 -9 0 -17 13 -158 13 -178 1 -9 -6 -12 -5 -8 1 7
12 -213 10 -232 -2 -9 -5 -12 -4 -8 2 7 12 -213 10 -232 -2 -9 -5 -12 -4 -8 2
7 12 -213 10 -232 -2 -8 -5 -12 -4 -8 1 5 9 -143 13 -206 6z m48 -12 c3 -5 1
-10 -4 -10 -6 0 -11 5 -11 10 0 6 2 10 4 10 3 0 8 -4 11 -10z m1760 1 c-3 -6
3 -14 12 -20 10 -6 13 -11 7 -11 -15 0 -36 25 -27 33 10 10 15 8 8 -2z m1921
0 c-3 -5 1 -14 9 -21 17 -14 20 -30 4 -30 -5 0 -8 4 -5 9 3 5 -1 14 -9 21 -13
11 -12 30 1 30 3 0 3 -4 0 -9z m59 -29 c-1 -9 2 -24 8 -32 9 -12 9 -13 -3 -2
-15 13 -23 65 -9 57 4 -3 6 -13 4 -23z m-3770 9 c-3 -2 -16 -6 -28 -8 -15 -2
-18 0 -9 5 14 9 45 12 37 3z m214 6 c-2 -2 -11 -8 -20 -15 -12 -9 -16 -9 -16
1 0 7 9 14 20 14 11 1 18 1 16 0z m77 -23 c1 -9 0 -13 -4 -10 -3 4 -7 14 -8
22 -1 9 0 13 4 10 3 -4 7 -14 8 -22z m163 23 c-2 -2 -11 -8 -20 -15 -12 -9
-16 -9 -16 1 0 7 9 14 20 14 11 1 18 1 16 0z m77 -23 c1 -9 0 -13 -4 -10 -3 4
-7 14 -8 22 -1 9 0 13 4 10 3 -4 7 -14 8 -22z m163 23 c-2 -2 -11 -8 -20 -15
-12 -9 -16 -9 -16 1 0 7 9 14 20 14 11 1 18 1 16 0z m77 -23 c1 -9 0 -13 -4
-10 -3 4 -7 14 -8 22 -1 9 0 13 4 10 3 -4 7 -14 8 -22z m163 23 c-2 -2 -11 -8
-20 -15 -12 -9 -16 -9 -16 1 0 7 9 14 20 14 11 1 18 1 16 0z m178 -14 c0 -10
-4 -10 -16 -1 -9 7 -18 13 -20 15 -2 1 5 1 16 0 11 0 20 -7 20 -14z m782 14
c-2 -2 -11 -8 -20 -15 -12 -9 -16 -9 -16 1 0 7 9 14 20 14 11 1 18 1 16 0z
m77 -23 c1 -9 0 -13 -4 -10 -3 4 -7 14 -8 22 -1 9 0 13 4 10 3 -4 7 -14 8 -22z
m163 23 c-2 -2 -11 -8 -20 -15 -12 -9 -16 -9 -16 1 0 7 9 14 20 14 11 1 18 1
16 0z m77 -23 c1 -9 0 -13 -4 -10 -3 4 -7 14 -8 22 -1 9 0 13 4 10 3 -4 7 -14
8 -22z m163 23 c-2 -2 -11 -8 -20 -15 -12 -9 -16 -9 -16 1 0 7 9 14 20 14 11
1 18 1 16 0z m77 -23 c1 -9 0 -13 -4 -10 -3 4 -7 14 -8 22 -1 9 0 13 4 10 3
-4 7 -14 8 -22z m163 23 c-2 -2 -11 -8 -20 -15 -12 -9 -16 -9 -16 1 0 7 9 14
20 14 11 1 18 1 16 0z m77 -23 c1 -9 0 -13 -4 -10 -3 4 -7 14 -8 22 -1 9 0 13
4 10 3 -4 7 -14 8 -22z m163 23 c-2 -2 -11 -8 -20 -15 -12 -9 -16 -9 -16 1 0
7 9 14 20 14 11 1 18 1 16 0z m198 -12 c0 -8 -4 -12 -9 -9 -5 3 -6 10 -3 15 9
13 12 11 12 -6z m820 -2 c0 -9 -4 -10 -14 -2 -7 6 -13 12 -13 14 0 1 6 2 13 2
8 0 14 -6 14 -14z m-3604 -28 c4 3 5 2 2 -2 -3 -4 -13 -8 -21 -9 -9 -1 -13 0
-10 3 3 4 0 13 -6 22 -10 12 -7 12 8 -2 11 -9 24 -15 27 -12z m240 0 c4 3 5 2
2 -2 -3 -4 -13 -8 -21 -9 -9 -1 -13 0 -10 3 3 4 0 13 -6 22 -10 12 -7 12 8 -2
11 -9 24 -15 27 -12z m240 0 c4 3 5 2 2 -2 -3 -4 -13 -8 -21 -9 -9 -1 -13 0
-10 3 3 4 0 13 -6 22 -10 12 -7 12 8 -2 11 -9 24 -15 27 -12z m240 0 c4 3 5 2
2 -2 -3 -4 -13 -8 -21 -9 -9 -1 -13 0 -10 3 3 4 0 13 -6 22 -10 12 -7 12 8 -2
11 -9 24 -15 27 -12z m68 12 c-6 -8 -9 -17 -6 -20 3 -4 2 -5 -2 -2 -3 3 -13
-1 -22 -7 -9 -7 -5 0 8 15 25 27 43 39 22 14z m878 -21 c-3 -3 -11 5 -18 17
-13 21 -12 21 5 5 10 -10 16 -20 13 -22z m240 0 c-3 -3 -11 5 -18 17 -13 21
-12 21 5 5 10 -10 16 -20 13 -22z m240 0 c-3 -3 -11 5 -18 17 -13 21 -12 21 5
5 10 -10 16 -20 13 -22z m241 3 c0 -5 -5 -9 -12 -9 -6 0 -8 3 -5 7 4 3 1 13
-6 22 -11 14 -10 14 6 2 9 -7 17 -17 17 -22z m240 0 c0 -5 -5 -9 -12 -9 -6 0
-8 3 -5 7 4 3 1 13 -6 22 -11 14 -10 14 6 2 9 -7 17 -17 17 -22z m920 17 c-7
-7 -13 -7 -20 0 -6 6 -3 10 10 10 13 0 16 -4 10 -10z m-1065 -5 c3 -5 2 -12
-3 -15 -5 -3 -9 1 -9 9 0 17 3 19 12 6z m217 -6 c3 0 9 -3 13 -7 4 -3 0 -5 -9
-4 -9 1 -22 8 -29 16 -10 10 -9 11 3 4 8 -5 18 -9 22 -9z m-2787 -5 c-3 -5
-12 -10 -18 -10 -7 0 -6 4 3 10 19 12 23 12 15 0z m240 0 c-3 -5 -12 -10 -18
-10 -7 0 -6 4 3 10 19 12 23 12 15 0z m240 0 c-3 -5 -12 -10 -18 -10 -7 0 -6
4 3 10 19 12 23 12 15 0z m240 0 c-3 -5 -12 -10 -18 -10 -7 0 -6 4 3 10 19 12
23 12 15 0z m230 -8 c-3 -3 -11 0 -18 7 -9 10 -8 11 6 5 10 -3 15 -9 12 -12z
m1925 6 c0 -6 -3 -8 -7 -5 -3 4 -13 1 -22 -6 -14 -11 -14 -10 -2 6 15 20 31
22 31 5z m812 1 c2 -2 1 -3 -1 -1 -2 1 -14 -6 -25 -15 -15 -14 -18 -14 -8 -2
6 9 9 18 6 22 -3 3 1 4 10 3 8 -1 17 -4 18 -7z m-3852 -3 c0 -2 -8 -10 -17
-17 -16 -13 -17 -12 -4 4 13 16 21 21 21 13z m3921 -13 c13 -16 12 -17 -3 -4
-10 7 -18 15 -18 17 0 8 8 3 21 -13z m-3717 -1 c2 -4 -4 -8 -14 -8 -10 0 -16
4 -14 8 3 4 9 8 14 8 5 0 11 -4 14 -8z m240 0 c2 -4 -4 -8 -14 -8 -10 0 -16 4
-14 8 3 4 9 8 14 8 5 0 11 -4 14 -8z m240 0 c2 -4 -4 -8 -14 -8 -10 0 -16 4
-14 8 3 4 9 8 14 8 5 0 11 -4 14 -8z m240 0 c2 -4 -4 -8 -14 -8 -10 0 -16 4
-14 8 3 4 9 8 14 8 5 0 11 -4 14 -8z m274 -11 c-7 -9 -13 -18 -15 -20 -1 -2
-1 5 0 16 0 11 7 20 14 20 10 0 10 -4 1 -16z m39 12 c-4 -3 -2 -11 3 -18 7 -8
5 -12 -4 -12 -8 0 -12 7 -11 16 5 22 4 21 12 21 3 0 3 -3 0 -7z m121 -12 c-7
-9 -13 -18 -15 -20 -1 -2 -1 5 0 16 0 11 7 20 14 20 10 0 10 -4 1 -16z m39 12
c-4 -3 -2 -11 3 -18 7 -8 5 -12 -4 -12 -8 0 -12 7 -11 16 5 22 4 21 12 21 3 0
3 -3 0 -7z m121 -12 c-7 -9 -13 -18 -15 -20 -1 -2 -1 5 0 16 0 11 7 20 14 20
10 0 10 -4 1 -16z m39 12 c-4 -3 -2 -11 3 -18 7 -8 5 -12 -4 -12 -8 0 -12 7
-11 16 5 22 4 21 12 21 3 0 3 -3 0 -7z m121 -12 c-7 -9 -13 -18 -15 -20 -1 -2
-1 5 0 16 0 11 7 20 14 20 10 0 10 -4 1 -16z m39 12 c-4 -3 -2 -11 3 -18 7 -8
5 -12 -4 -12 -8 0 -12 7 -11 16 5 22 4 21 12 21 3 0 3 -3 0 -7z m327 -1 c2 -4
-4 -8 -14 -8 -10 0 -16 4 -14 8 3 4 9 8 14 8 5 0 11 -4 14 -8z m240 0 c2 -4
-4 -8 -14 -8 -10 0 -16 4 -14 8 3 4 9 8 14 8 5 0 11 -4 14 -8z m400 0 c2 -4
-4 -8 -14 -8 -10 0 -16 4 -14 8 3 4 9 8 14 8 5 0 11 -4 14 -8z m240 0 c2 -4
-4 -8 -14 -8 -10 0 -16 4 -14 8 3 4 9 8 14 8 5 0 11 -4 14 -8z m194 -11 c-7
-9 -13 -18 -15 -20 -1 -2 -1 5 0 16 0 11 7 20 14 20 10 0 10 -4 1 -16z m39 12
c-4 -3 -2 -11 3 -18 7 -8 5 -12 -4 -12 -8 0 -12 7 -11 16 5 22 4 21 12 21 3 0
3 -3 0 -7z m121 -12 c-7 -9 -13 -18 -15 -20 -1 -2 -1 5 0 16 0 11 7 20 14 20
10 0 10 -4 1 -16z m39 12 c-4 -3 -2 -11 3 -18 7 -8 5 -12 -4 -12 -8 0 -12 7
-11 16 5 22 4 21 12 21 3 0 3 -3 0 -7z m121 -12 c-7 -9 -13 -18 -15 -20 -1 -2
-1 5 0 16 0 11 7 20 14 20 10 0 10 -4 1 -16z m39 12 c-4 -3 -2 -11 3 -18 7 -8
5 -12 -4 -12 -8 0 -12 7 -11 16 5 22 4 21 12 21 3 0 3 -3 0 -7z m121 -12 c-7
-9 -13 -18 -15 -20 -1 -2 -1 5 0 16 0 11 7 20 14 20 10 0 10 -4 1 -16z m39 12
c-4 -3 -2 -11 3 -18 7 -8 5 -12 -4 -12 -8 0 -12 7 -11 16 5 22 4 21 12 21 3 0
3 -3 0 -7z m-3696 -20 c13 -16 12 -17 -3 -4 -10 7 -18 15 -18 17 0 8 8 3 21
-13z m316 4 c0 -7 -9 -14 -20 -14 -19 -2 -19 -2 -1 12 11 8 19 15 20 15 0 0 1
-6 1 -13z m240 0 c0 -7 -9 -14 -20 -14 -19 -2 -19 -2 -1 12 11 8 19 15 20 15
0 0 1 -6 1 -13z m240 0 c0 -7 -9 -14 -20 -14 -19 -2 -19 -2 -1 12 11 8 19 15
20 15 0 0 1 -6 1 -13z m240 0 c0 -7 -9 -14 -20 -14 -19 -2 -19 -2 -1 12 11 8
19 15 20 15 0 0 1 -6 1 -13z m1120 0 c0 -7 -9 -14 -20 -14 -19 -2 -19 -2 -1
12 11 8 19 15 20 15 0 0 1 -6 1 -13z m240 0 c0 -7 -9 -14 -20 -14 -19 -2 -19
-2 -1 12 11 8 19 15 20 15 0 0 1 -6 1 -13z m400 0 c0 -7 -9 -14 -20 -14 -19
-2 -19 -2 -1 12 11 8 19 15 20 15 0 0 1 -6 1 -13z m240 0 c0 -7 -9 -14 -20
-14 -19 -2 -19 -2 -1 12 11 8 19 15 20 15 0 0 1 -6 1 -13z m803 -8 c0 -5 -4
-9 -8 -9 -5 0 -9 7 -9 15 0 8 4 12 9 9 4 -3 8 -9 8 -15z m-3700 -4 c0 -2 -9
-3 -19 -2 -11 0 -18 5 -15 9 4 6 34 0 34 -7z m240 0 c0 -2 -9 -3 -19 -2 -11 0
-18 5 -15 9 4 6 34 0 34 -7z m240 0 c0 -2 -9 -3 -19 -2 -11 0 -18 5 -15 9 4 6
34 0 34 -7z m240 0 c0 -2 -9 -3 -19 -2 -11 0 -18 5 -15 9 4 6 34 0 34 -7z
m240 0 c0 -2 -9 -3 -19 -2 -11 0 -18 5 -15 9 4 6 34 0 34 -7z m880 0 c0 -2 -9
-3 -19 -2 -11 0 -18 5 -15 9 4 6 34 0 34 -7z m240 0 c0 -2 -9 -3 -19 -2 -11 0
-18 5 -15 9 4 6 34 0 34 -7z m240 0 c0 -2 -9 -3 -19 -2 -11 0 -18 5 -15 9 4 6
34 0 34 -7z m160 0 c0 -2 -9 -3 -19 -2 -11 0 -18 5 -15 9 4 6 34 0 34 -7z
m240 0 c0 -2 -9 -3 -19 -2 -11 0 -18 5 -15 9 4 6 34 0 34 -7z m240 0 c0 -2 -9
-3 -19 -2 -11 0 -18 5 -15 9 4 6 34 0 34 -7z m-3077 -17 c-6 -7 -9 -21 -8 -30
2 -9 -7 -25 -18 -35 -21 -18 -21 -17 -7 1 8 11 15 26 15 35 0 17 13 41 22 41
3 0 1 -6 -4 -12z m37 2 c0 -5 -5 -10 -11 -10 -5 0 -7 5 -4 10 3 6 8 10 11 10
2 0 4 -4 4 -10z m3840 0 c0 -5 -5 -10 -11 -10 -5 0 -7 5 -4 10 3 6 8 10 11 10
2 0 4 -4 4 -10z m-3955 -20 c3 -6 -1 -7 -9 -4 -18 7 -21 14 -7 14 6 0 13 -4
16 -10z m3975 -24 c0 -2 -8 -10 -17 -17 -16 -13 -17 -12 -4 4 13 16 21 21 21
13z m59 -23 c2 -1 -5 -1 -16 0 -11 0 -20 7 -20 14 0 10 4 10 16 1 9 -7 18 -13
20 -15z m-4040 -46 c8 -10 7 -14 -2 -14 -8 0 -14 6 -14 14 0 7 1 13 2 13 2 0
8 -6 14 -13z m4076 -6 c3 -5 2 -12 -3 -15 -5 -3 -9 1 -9 9 0 17 3 19 12 6z
m-4018 -14 c0 -7 -9 -14 -20 -14 -19 -2 -19 -2 -1 12 11 8 19 15 20 15 0 0 1
-6 1 -13z m3995 -42 c3 0 9 -3 13 -7 4 -3 0 -5 -9 -4 -9 1 -22 8 -29 16 -10
10 -9 11 3 4 8 -5 18 -9 22 -9z m-4019 -50 c4 -8 3 -16 -1 -19 -4 -3 -9 4 -9
15 -2 23 3 25 10 4z m47 0 c-5 -7 -8 -14 -5 -17 3 -2 -2 -5 -10 -5 -10 0 -12
4 -5 12 5 7 8 14 5 17 -3 2 2 5 10 5 10 0 12 -4 5 -12z m-81 -8 c8 -10 7 -14
-2 -14 -8 0 -14 6 -14 14 0 7 1 13 2 13 2 0 8 -6 14 -13z m4078 -22 c0 -8 -4
-12 -9 -9 -5 3 -6 10 -3 15 9 13 12 11 12 -6z m-4039 -34 c-7 -9 -13 -18 -15
-20 -1 -2 -1 5 0 16 0 11 7 20 14 20 10 0 10 -4 1 -16z m39 12 c-4 -3 -2 -11
3 -18 7 -8 5 -12 -4 -12 -8 0 -12 7 -11 16 5 22 4 21 12 21 3 0 3 -3 0 -7z
m3963 -23 c0 -5 -5 -10 -11 -10 -5 0 -7 5 -4 10 3 6 8 10 11 10 2 0 4 -4 4
-10z m-3984 -46 c1 -9 0 -13 -4 -10 -3 4 -7 14 -8 22 -1 9 0 13 4 10 3 -4 7
-14 8 -22z m4020 -9 c-1 -8 -5 -17 -8 -21 -5 -4 -4 16 1 34 3 9 9 -1 7 -13z
m-4022 -27 c-3 -4 -11 -5 -19 -1 -21 7 -19 12 4 10 11 0 18 -5 15 -9z m803 -3
c0 -8 -4 -12 -9 -9 -5 3 -6 10 -3 15 9 13 12 11 12 -6z m80 0 c0 -8 -4 -12 -9
-9 -5 3 -6 10 -3 15 9 13 12 11 12 -6z m274 -8 c-10 -9 -11 -8 -5 6 3 10 9 15
12 12 3 -3 0 -11 -7 -18z m126 8 c0 -8 -4 -12 -9 -9 -5 3 -6 10 -3 15 9 13 12
11 12 -6z m80 0 c0 -8 -4 -12 -9 -9 -5 3 -6 10 -3 15 9 13 12 11 12 -6z m400
0 c0 -8 -4 -12 -9 -9 -5 3 -6 10 -3 15 9 13 12 11 12 -6z m80 0 c0 -8 -4 -12
-9 -9 -5 3 -6 10 -3 15 9 13 12 11 12 -6z m1360 0 c0 -8 -4 -12 -9 -9 -5 3 -6
10 -3 15 9 13 12 11 12 -6z m80 0 c0 -8 -4 -12 -9 -9 -5 3 -6 10 -3 15 9 13
12 11 12 -6z m400 0 c0 -8 -4 -12 -9 -9 -5 3 -6 10 -3 15 9 13 12 11 12 -6z
m80 0 c0 -8 -4 -12 -9 -9 -5 3 -6 10 -3 15 9 13 12 11 12 -6z m234 -2 c13 -17
13 -17 -6 -3 -11 8 -22 16 -24 17 -2 2 0 3 6 3 6 0 17 -8 24 -17z m-2575 -8
c-1 -8 -5 -17 -8 -21 -5 -4 -4 16 1 34 3 9 9 -1 7 -13z m479 -6 c-3 -12 -7
-24 -10 -27 -3 -3 -3 5 -1 19 6 30 5 29 10 29 3 0 3 -10 1 -21z m241 6 c-1 -8
-5 -17 -8 -21 -5 -4 -4 16 1 34 3 9 9 -1 7 -13z m79 -6 c-3 -12 -7 -24 -10
-27 -3 -3 -3 5 -1 19 6 30 5 29 10 29 3 0 3 -10 1 -21z m1121 6 c-1 -8 -5 -17
-8 -21 -5 -4 -4 16 1 34 3 9 9 -1 7 -13z m-2852 -3 c3 -5 -1 -9 -9 -9 -8 0
-12 4 -9 9 3 4 7 8 9 8 2 0 6 -4 9 -8z m175 -26 c-3 -3 -11 5 -18 17 -13 21
-12 21 5 5 10 -10 16 -20 13 -22z m556 16 c-3 -3 -11 0 -18 7 -9 10 -8 11 6 5
10 -3 15 -9 12 -12z m404 -16 c-3 -3 -11 5 -18 17 -13 21 -12 21 5 5 10 -10
16 -20 13 -22z m470 20 c9 -11 9 -16 -1 -22 -7 -4 -10 -4 -6 1 4 4 3 14 -3 22
-6 7 -9 13 -6 13 2 0 10 -6 16 -14z m331 -17 c0 -5 -5 -9 -12 -9 -6 0 -8 3 -5
7 4 3 1 13 -6 22 -11 14 -10 14 6 2 9 -7 17 -17 17 -22z m635 11 c10 -11 16
-20 13 -20 -3 0 -13 9 -23 20 -10 11 -16 20 -13 20 3 0 13 -9 23 -20z m484
-14 c-3 -3 -11 5 -18 17 -13 21 -12 21 5 5 10 -10 16 -20 13 -22z m411 29 c0
-2 -6 -8 -13 -14 -10 -8 -14 -7 -14 2 0 8 6 14 14 14 7 0 13 -1 13 -2z m-3954
-20 c-1 -8 -5 -17 -8 -21 -5 -4 -4 16 1 34 3 9 9 -1 7 -13z m561 0 c0 -8 -3
-13 -5 -10 -3 3 -12 -1 -21 -7 -10 -8 -9 -4 3 10 23 26 23 26 23 7z m182 -12
c2 -1 -5 -1 -16 0 -11 0 -20 7 -20 14 0 10 4 10 16 1 9 -7 18 -13 20 -15z
m217 12 c-1 -8 -5 -17 -8 -21 -5 -4 -4 16 1 34 3 9 9 -1 7 -13z m135 -12 c17
-20 18 -23 3 -10 -11 9 -23 15 -26 12 -2 -3 -5 2 -5 10 0 19 -1 20 28 -12z
m390 10 c13 -16 12 -17 -3 -4 -10 7 -18 15 -18 17 0 8 8 3 21 -13z m35 -3 c0
-12 -4 -16 -9 -11 -5 5 -6 14 -3 20 10 15 12 14 12 -9z m183 -7 c2 -1 -5 -1
-16 0 -11 0 -20 7 -20 14 0 10 4 10 16 1 9 -7 18 -13 20 -15z m267 5 c12 -14
13 -18 3 -10 -9 6 -18 10 -21 7 -2 -3 -5 2 -5 10 0 19 0 19 23 -7z m320 0 c12
-14 13 -18 3 -10 -9 6 -18 10 -21 7 -2 -3 -5 2 -5 10 0 19 0 19 23 -7z m208
-7 c-2 -3 -12 3 -22 13 -16 17 -16 18 5 5 12 -7 20 -15 17 -18z m642 14 c-1
-8 -8 -21 -16 -28 -10 -10 -11 -9 -4 3 5 8 9 18 10 23 3 14 4 17 8 17 2 0 3
-7 2 -15z m265 -2 c13 -16 12 -17 -3 -4 -17 13 -22 21 -14 21 2 0 10 -8 17
-17z m35 -3 c0 -12 -4 -16 -9 -11 -5 5 -6 14 -3 20 10 15 12 14 12 -9z m183
-7 c2 -1 -5 -1 -16 0 -11 0 -20 7 -20 14 0 10 4 10 16 1 9 -7 18 -13 20 -15z
m217 12 c-1 -8 -5 -17 -8 -21 -5 -4 -4 16 1 34 3 9 9 -1 7 -13z m-3219 -2 c-4
-3 -1 -13 6 -22 11 -14 10 -14 -5 -2 -16 12 -16 31 -1 31 4 0 3 -3 0 -7z m196
-13 c10 -12 9 -12 -4 -2 -9 6 -18 9 -21 6 -3 -3 -9 -1 -12 4 -9 15 22 8 37 -8z
m352 11 c-9 -8 -36 -10 -30 -2 2 4 11 8 20 8 8 0 13 -3 10 -6z m128 -11 c10
-12 9 -12 -4 -2 -9 6 -18 9 -21 6 -3 -3 -9 -1 -12 4 -9 15 22 8 37 -8z m98 3
c13 -16 12 -17 -3 -4 -10 7 -18 15 -18 17 0 8 8 3 21 -13z m186 10 c-4 -3 -1
-13 6 -22 11 -14 10 -14 -5 -2 -16 12 -16 31 -1 31 4 0 3 -3 0 -7z m196 -13
c10 -12 9 -12 -4 -2 -9 6 -18 9 -21 6 -3 -3 -9 -1 -12 4 -9 15 22 8 37 -8z
m248 7 c-6 -8 -9 -16 -6 -19 3 -2 -2 -5 -10 -5 -13 0 -13 3 2 19 19 21 31 25
14 5z m320 0 c-6 -8 -9 -16 -6 -19 3 -2 -2 -5 -10 -5 -13 0 -13 3 2 19 19 21
31 25 14 5z m872 -7 c10 -12 9 -12 -4 -2 -9 6 -18 9 -21 6 -3 -3 -9 -1 -12 4
-9 15 22 8 37 -8z m98 3 c13 -16 12 -17 -3 -4 -17 13 -22 21 -14 21 2 0 10 -8
17 -17z m186 10 c-4 -3 -1 -13 6 -22 11 -14 10 -14 -5 -2 -16 12 -16 31 -1 31
4 0 3 -3 0 -7z m196 -13 c10 -12 9 -12 -4 -2 -9 6 -18 9 -21 6 -3 -3 -9 -1
-12 4 -9 15 22 8 37 -8z m178 3 c13 -16 12 -17 -3 -4 -17 13 -22 21 -14 21 2
0 10 -8 17 -17z m129 11 c0 -8 -19 -13 -24 -6 -3 5 1 9 9 9 8 0 15 -2 15 -3z
m-3499 -21 c13 -16 12 -17 -3 -4 -10 7 -18 15 -18 17 0 8 8 3 21 -13z m2478 4
c8 -10 7 -14 -2 -14 -8 0 -14 6 -14 14 0 7 1 13 2 13 2 0 8 -6 14 -13z m-1923
-33 c0 -13 -2 -22 -5 -19 -3 3 -6 17 -7 31 0 13 2 22 5 19 3 -3 6 -17 7 -31z
m-386 11 c-7 -8 -17 -15 -23 -15 -6 0 -2 7 9 15 25 19 30 19 14 0z m480 0 c-7
-8 -17 -15 -23 -15 -6 0 -2 7 9 15 25 19 30 19 14 0z m480 0 c-7 -8 -17 -15
-23 -15 -6 0 -2 7 9 15 25 19 30 19 14 0z m287 2 c0 -7 -9 -14 -20 -14 -19 -2
-19 -2 -1 12 11 8 19 15 20 15 0 0 1 -6 1 -13z m320 0 c0 -7 -9 -14 -20 -14
-19 -2 -19 -2 -1 12 11 8 19 15 20 15 0 0 1 -6 1 -13z m844 -4 c13 -16 12 -17
-3 -4 -10 7 -18 15 -18 17 0 8 8 3 21 -13z m469 2 c-7 -8 -17 -15 -23 -15 -6
0 -2 7 9 15 25 19 30 19 14 0z m-3534 -31 c1 -9 -1 -13 -4 -9 -4 4 -7 10 -7
13 0 4 -4 14 -9 22 -7 12 -6 13 4 3 8 -7 15 -20 16 -29z m815 19 c13 -16 12
-17 -3 -4 -15 11 -21 11 -35 0 -16 -13 -17 -12 -4 4 7 9 17 17 21 17 4 0 14
-8 21 -17z m107 -4 c9 -12 9 -16 -1 -16 -7 0 -14 9 -14 20 -1 11 -1 18 0 16 2
-2 8 -11 15 -20z m373 4 c13 -16 12 -17 -3 -4 -15 11 -21 11 -35 0 -16 -13
-17 -12 -4 4 7 9 17 17 21 17 4 0 14 -8 21 -17z m106 -1 c0 -10 -6 -19 -13
-19 -9 0 -9 5 -1 19 7 10 13 18 14 18 1 0 1 -8 0 -18z m374 1 c13 -16 12 -17
-3 -4 -15 11 -21 11 -35 0 -16 -13 -17 -12 -4 4 7 9 17 17 21 17 4 0 14 -8 21
-17z m348 14 c-2 -2 -11 -8 -20 -15 -12 -9 -16 -9 -16 1 0 7 9 14 20 14 11 1
18 1 16 0z m811 -3 c0 -8 -19 -13 -24 -6 -3 5 1 9 9 9 8 0 15 -2 15 -3z m281
-11 c13 -16 12 -17 -3 -4 -15 11 -21 11 -35 0 -16 -13 -17 -12 -4 4 7 9 17 17
21 17 4 0 14 -8 21 -17z m106 -1 c0 -10 -6 -19 -13 -19 -9 0 -9 5 -1 19 7 10
13 18 14 18 1 0 1 -8 0 -18z m374 1 c13 -16 12 -17 -3 -4 -15 11 -21 11 -35 0
-16 -13 -17 -12 -4 4 7 9 17 17 21 17 4 0 14 -8 21 -17z m107 -4 c9 -12 9 -16
-1 -16 -7 0 -14 9 -14 20 -1 11 -1 18 0 16 2 -2 8 -11 15 -20z m161 18 c-2 -2
-11 -8 -20 -15 -12 -9 -16 -9 -16 1 0 7 9 14 20 14 11 1 18 1 16 0z m-1919
-31 c-7 -7 -13 -7 -20 0 -6 6 -3 10 10 10 13 0 16 -4 10 -10z m320 0 c-7 -7
-13 -7 -20 0 -6 6 -3 10 10 10 13 0 16 -4 10 -10z m80 0 c-7 -7 -13 -7 -20 0
-6 6 -3 10 10 10 13 0 16 -4 10 -10z m36 -10 c1 -7 -4 -13 -12 -13 -9 0 -11 4
-4 12 5 7 8 15 5 18 -3 4 -2 5 2 2 4 -3 8 -11 9 -19z m-1971 -6 c3 -6 -1 -7
-9 -4 -18 7 -21 14 -7 14 6 0 13 -4 16 -10z m1894 7 c-2 -1 -13 -9 -24 -17
-19 -14 -19 -14 -6 3 7 9 18 17 24 17 6 0 8 -1 6 -3z m76 -39 c5 4 5 1 1 -6
-6 -10 -11 -10 -22 -1 -8 6 -14 14 -14 16 0 3 6 0 13 -6 8 -6 18 -7 22 -3z
m-2485 -2 c0 -2 -8 -10 -17 -17 -16 -13 -17 -12 -4 4 13 16 21 21 21 13z m544
-4 c2 -4 -5 -9 -17 -9 -17 -2 -19 0 -7 7 18 12 18 12 24 2z m-70 -20 c3 -5 -1
-9 -9 -9 -8 0 -12 4 -9 9 3 4 7 8 9 8 2 0 6 -4 9 -8z m2500 0 c2 -4 -4 -8 -14
-8 -10 0 -16 4 -14 8 3 4 9 8 14 8 5 0 11 -4 14 -8z m-2466 -27 c-3 -3 -9 2
-12 12 -6 14 -5 15 5 6 7 -7 10 -15 7 -18z m42 21 c0 -2 -8 -10 -17 -17 -16
-13 -17 -12 -4 4 13 16 21 21 21 13z m-584 -18 c4 -7 4 -10 -1 -6 -4 4 -15 2
-24 -5 -14 -11 -14 -10 -2 6 16 20 18 21 27 5z m2481 -30 c2 -17 0 -19 -7 -8
-5 8 -6 18 -4 22 8 12 10 10 11 -14z m38 4 c-3 -3 -11 0 -18 7 -9 10 -8 11 6
5 10 -3 15 -9 12 -12z m523 -2 c-7 -10 -14 -17 -17 -15 -4 4 18 35 25 35 2 0
-1 -9 -8 -20z m-2511 -8 c-10 -10 -14 -22 -10 -27 5 -4 2 -5 -5 -1 -11 6 -10
12 4 27 9 10 19 19 22 19 3 0 -2 -8 -11 -18z m-527 -7 c0 -2 -9 -3 -19 -2 -11
0 -18 5 -15 9 4 6 34 0 34 -7z m2520 1 c0 -2 -8 -10 -17 -17 -16 -13 -17 -12
-4 4 13 16 21 21 21 13z m-2503 -31 c0 -8 -4 -15 -9 -15 -10 0 -11 14 -1 23 9
10 10 9 10 -8z m2964 -2 c13 -16 12 -17 -3 -4 -17 13 -22 21 -14 21 2 0 10 -8
17 -17z m75 -9 c1 -9 0 -13 -4 -10 -3 4 -7 14 -8 22 -1 9 0 13 4 10 3 -4 7
-14 8 -22z m-2499 -27 c1 -11 1 -18 0 -16 -2 2 -8 11 -15 20 -9 12 -9 16 1 16
7 0 14 -9 14 -20z m-558 0 c-2 -2 -11 -8 -20 -15 -12 -9 -16 -9 -16 1 0 7 9
14 20 14 11 1 18 1 16 0z m2480 0 c-2 -2 -11 -8 -20 -15 -12 -9 -16 -9 -16 1
0 7 9 14 20 14 11 1 18 1 16 0z m491 -3 c0 -8 -19 -13 -24 -6 -3 5 1 9 9 9 8
0 15 -2 15 -3z m65 -4 c3 -5 1 -10 -4 -10 -6 0 -11 5 -11 10 0 6 2 10 4 10 3
0 8 -4 11 -10z m-2438 -15 c0 -8 -4 -15 -9 -15 -10 0 -11 14 -1 23 9 10 10 9
10 -8z m-562 -13 c-3 -3 -11 0 -18 7 -9 10 -8 11 6 5 10 -3 15 -9 12 -12z
m2480 0 c-3 -3 -11 0 -18 7 -9 10 -8 11 6 5 10 -3 15 -9 12 -12z m-1979 -7
c-1 -8 -5 -17 -8 -21 -5 -4 -4 16 1 34 3 9 9 -1 7 -13z m2514 0 c-7 -9 -15
-13 -18 -10 -3 3 -12 -1 -21 -8 -14 -11 -14 -10 -2 5 7 10 17 16 21 13 5 -3
11 -1 15 5 3 5 9 10 12 10 3 0 0 -7 -7 -15z m-3079 -18 c-10 -9 -11 -8 -5 6 3
10 9 15 12 12 3 -3 0 -11 -7 -18z m3009 11 c0 -6 -3 -8 -7 -5 -3 4 -13 1 -22
-6 -14 -11 -14 -10 -2 6 15 20 31 22 31 5z m-460 -2 c0 -2 -8 -10 -17 -17 -16
-13 -17 -12 -4 4 13 16 21 21 21 13z m-60 -20 c0 -2 -8 -10 -17 -17 -16 -13
-17 -12 -4 4 13 16 21 21 21 13z m-2460 -21 c0 -2 -9 -3 -19 -2 -11 0 -18 5
-15 9 4 6 34 0 34 -7z m560 10 c0 -7 -30 -13 -34 -7 -3 4 4 9 15 9 10 1 19 0
19 -2z m2480 -5 c0 -5 -2 -10 -4 -10 -3 0 -8 5 -11 10 -3 6 -1 10 4 10 6 0 11
-4 11 -10z m-3023 -35 c0 -8 -4 -15 -9 -15 -10 0 -11 14 -1 23 9 10 10 9 10
-8z m519 -11 c1 -9 0 -13 -4 -10 -3 4 -7 14 -8 22 -1 9 0 13 4 10 3 -4 7 -14
8 -22z m2519 -2 c-3 -3 -11 0 -18 7 -9 10 -8 11 6 5 10 -3 15 -9 12 -12z
m-577 -21 c-7 -9 -13 -18 -15 -20 -1 -2 -1 5 0 16 0 11 7 20 14 20 10 0 10 -4
1 -16z m518 4 c-1 -8 -5 -17 -8 -21 -5 -4 -4 16 1 34 3 9 9 -1 7 -13z m-2997
-8 c-2 -2 -11 -8 -20 -15 -12 -9 -16 -9 -16 1 0 7 9 14 20 14 11 1 18 1 16 0z
m526 -7 c-3 -5 -12 -10 -18 -10 -7 0 -6 4 3 10 19 12 23 12 15 0z m2514 7 c-2
-1 -13 -9 -24 -17 -19 -14 -19 -14 -6 3 7 9 18 17 24 17 6 0 8 -1 6 -3z
m-3004 -35 c-3 -3 -11 0 -18 7 -9 10 -8 11 6 5 10 -3 15 -9 12 -12z m2381 -12
c0 -12 -4 -16 -9 -11 -5 5 -6 14 -3 20 10 15 12 14 12 -9z m78 -10 c-6 -6 -10
-3 -10 10 0 13 4 16 10 10 7 -7 7 -13 0 -20z m-2523 -3 c-10 -9 -11 -8 -5 6 3
10 9 15 12 12 3 -3 0 -11 -7 -18z m3053 11 c-3 -4 -9 -8 -15 -8 -5 0 -9 4 -9
8 0 5 7 9 15 9 8 0 12 -4 9 -9z m-2429 -26 c-3 -3 -11 0 -18 7 -9 10 -8 11 6
5 10 -3 15 -9 12 -12z m-595 -17 c0 -2 -9 -3 -19 -2 -11 0 -18 5 -15 9 4 6 34
0 34 -7z m3051 -2 c13 -17 13 -17 -6 -3 -11 8 -22 16 -24 17 -2 2 0 3 6 3 6 0
17 -8 24 -17z m-574 -21 c-17 -18 -51 -27 -41 -10 3 5 9 6 14 3 4 -3 13 2 20
10 7 8 15 15 18 15 3 0 -2 -8 -11 -18z m528 9 c-9 -8 -36 -10 -30 -2 2 4 11 8
20 8 8 0 13 -3 10 -6z m-2988 -16 c0 -8 -4 -15 -9 -15 -10 0 -11 14 -1 23 9
10 10 9 10 -8z m2399 0 c-1 -8 -5 -17 -8 -21 -5 -4 -4 16 1 34 3 9 9 -1 7 -13z
m650 -7 c3 -4 -1 -5 -10 -4 -8 1 -18 5 -22 8 -3 4 1 5 10 4 8 -1 18 -5 22 -8z
m-107 -42 c-3 -3 -11 5 -18 17 -13 21 -12 21 5 5 10 -10 16 -20 13 -22z m-465
-6 c-6 -6 -10 -3 -10 10 0 13 4 16 10 10 7 -7 7 -13 0 -20z m-2495 17 c-2 -2
-11 -8 -20 -15 -12 -9 -16 -9 -16 1 0 7 9 14 20 14 11 1 18 1 16 0z m560 0
c-2 -2 -11 -8 -20 -15 -12 -9 -16 -9 -16 1 0 7 9 14 20 14 11 1 18 1 16 0z
m-524 -35 c-3 -3 -11 0 -18 7 -9 10 -8 11 6 5 10 -3 15 -9 12 -12z m561 2 c-1
-8 -6 -17 -12 -21 -5 -4 -6 -4 -2 1 4 5 3 14 -2 21 -7 8 -5 12 4 12 8 0 13 -6
12 -13z m2414 -9 c5 3 11 1 14 -4 4 -5 0 -8 -6 -7 -21 3 -38 16 -38 29 0 7 5
4 11 -6 6 -9 14 -15 19 -12z m-558 0 c3 0 9 -3 13 -7 4 -3 0 -5 -9 -4 -9 1
-22 8 -29 16 -10 10 -9 11 3 4 8 -5 18 -9 22 -9z m-2481 -18 c-10 -9 -11 -8
-5 6 3 10 9 15 12 12 3 -3 0 -11 -7 -18z m2545 -23 c1 -9 0 -13 -3 -10 -4 3
-13 0 -22 -6 -12 -10 -12 -7 2 8 9 11 15 24 12 27 -3 4 -2 5 2 2 4 -3 8 -13 9
-21z m522 6 c-7 -10 -14 -17 -17 -15 -4 4 18 35 25 35 2 0 -1 -9 -8 -20z
m-2511 -8 c-10 -10 -14 -22 -10 -27 5 -4 2 -5 -5 -1 -11 6 -10 12 4 27 9 10
19 19 22 19 3 0 -2 -8 -11 -18z m-527 -7 c0 -2 -9 -3 -19 -2 -11 0 -18 5 -15
9 4 6 34 0 34 -7z m3000 -13 c0 -5 -7 -9 -15 -9 -8 0 -12 4 -9 9 3 4 9 8 15 8
5 0 9 -4 9 -8z m-2983 -17 c0 -8 -4 -15 -9 -15 -10 0 -11 14 -1 23 9 10 10 9
10 -8z m2399 -11 c1 -9 0 -13 -4 -10 -3 4 -7 14 -8 22 -1 9 0 13 4 10 3 -4 7
-14 8 -22z m640 0 c1 -9 0 -13 -4 -10 -3 4 -7 14 -8 22 -1 9 0 13 4 10 3 -4 7
-14 8 -22z m-576 -9 c14 -19 14 -19 -2 -6 -10 7 -18 18 -18 24 0 6 1 8 3 6 1
-2 9 -13 17 -24z m-1923 -18 c1 -11 1 -18 0 -16 -2 2 -8 11 -15 20 -9 12 -9
16 1 16 7 0 14 -9 14 -20z m2402 -11 c-3 -3 -11 5 -18 17 -13 21 -12 21 5 5
10 -10 16 -20 13 -22z m-2960 11 c-2 -2 -11 -8 -20 -15 -12 -9 -16 -9 -16 1 0
7 9 14 20 14 11 1 18 1 16 0z m3036 -7 c3 -5 1 -10 -4 -10 -6 0 -11 5 -11 10
0 6 2 10 4 10 3 0 8 -4 11 -10z m-2438 -15 c0 -8 -4 -15 -9 -15 -10 0 -11 14
-1 23 9 10 10 9 10 -8z m-562 -13 c-3 -3 -11 0 -18 7 -9 10 -8 11 6 5 10 -3
15 -9 12 -12z m2478 -7 c-7 -21 -12 -19 -10 4 0 11 5 18 9 15 4 -3 5 -11 1
-19z m-1977 0 c-1 -8 -5 -17 -8 -21 -5 -4 -4 16 1 34 3 9 9 -1 7 -13z m1880 0
c-1 -8 -5 -17 -8 -21 -5 -4 -4 16 1 34 3 9 9 -1 7 -13z m634 0 c-7 -9 -15 -13
-18 -10 -3 3 -12 -1 -21 -8 -14 -11 -14 -10 -2 5 7 10 17 16 21 13 5 -3 11 -1
15 5 3 5 9 10 12 10 3 0 0 -7 -7 -15z m-3073 -10 c0 -8 -4 -12 -9 -9 -5 3 -6
10 -3 15 9 13 12 11 12 -6z m2974 -8 c-10 -9 -11 -8 -5 6 3 10 9 15 12 12 3
-3 0 -11 -7 -18z m-2911 -26 c0 -6 -4 -12 -8 -15 -5 -3 -9 1 -9 9 0 8 4 15 9
15 4 0 8 -4 8 -9z m520 4 c0 -7 -30 -13 -34 -7 -3 4 4 9 15 9 10 1 19 0 19 -2z
m1876 -31 c1 -9 -1 -13 -4 -9 -4 4 -7 10 -7 13 0 4 -4 14 -9 22 -7 12 -6 13 4
3 8 -7 15 -20 16 -29z m604 26 c0 -5 -2 -10 -4 -10 -3 0 -8 5 -11 10 -3 6 -1
10 4 10 6 0 11 -4 11 -10z m-3018 -35 c10 2 20 0 23 -4 10 -17 -46 -4 -63 14
-16 19 -16 19 3 3 11 -8 28 -14 37 -13z m2458 11 c-7 -7 -13 -7 -20 0 -6 6 -3
10 10 10 13 0 16 -4 10 -10z m-1944 -22 c1 -9 0 -13 -4 -10 -3 4 -7 14 -8 22
-1 9 0 13 4 10 3 -4 7 -14 8 -22z m2519 -2 c-3 -3 -11 0 -18 7 -9 10 -8 11 6
5 10 -3 15 -9 12 -12z m-575 4 c0 -2 -8 -10 -17 -17 -16 -13 -17 -12 -4 4 13
16 21 21 21 13z m-1682 -25 c-7 -9 -13 -18 -15 -20 -1 -2 -1 5 0 16 0 11 7 20
14 20 10 0 10 -4 1 -16z m207 10 c-9 -8 -36 -10 -30 -2 2 4 11 8 20 8 8 0 13
-3 10 -6z m28 -16 c-7 -21 -12 -19 -10 4 0 11 5 18 9 15 4 -3 5 -11 1 -19z
m405 6 c-7 -9 -13 -18 -15 -20 -1 -2 -1 5 0 16 0 11 7 20 14 20 10 0 10 -4 1
-16z m207 10 c-9 -8 -36 -10 -30 -2 2 4 11 8 20 8 8 0 13 -3 10 -6z m28 -16
c-7 -21 -12 -19 -10 4 0 11 5 18 9 15 4 -3 5 -11 1 -19z m1323 10 c-1 -8 -5
-17 -8 -21 -5 -4 -4 16 1 34 3 9 9 -1 7 -13z m-3020 -15 c0 -12 -4 -16 -9 -11
-5 5 -6 14 -3 20 10 15 12 14 12 -9z m644 16 c0 -2 -8 -10 -17 -17 -16 -13
-17 -12 -4 4 13 16 21 21 21 13z m339 -23 c2 -1 -5 -1 -16 0 -11 0 -20 7 -20
14 0 10 4 10 16 1 9 -7 18 -13 20 -15z m131 12 c-7 -8 -17 -15 -23 -15 -6 0
-2 7 9 15 25 19 30 19 14 0z m170 11 c0 -2 -8 -10 -17 -17 -16 -13 -17 -12 -4
4 13 16 21 21 21 13z m339 -23 c2 -1 -5 -1 -16 0 -11 0 -20 7 -20 14 0 10 4
10 16 1 9 -7 18 -13 20 -15z m131 12 c-7 -8 -17 -15 -23 -15 -6 0 -2 7 9 15
25 19 30 19 14 0z m-1205 -5 c-3 -5 -12 -10 -18 -10 -7 0 -6 4 3 10 19 12 23
12 15 0z m192 -8 c0 -10 -6 -19 -13 -19 -9 0 -9 5 -1 19 7 10 13 18 14 18 1 0
1 -8 0 -18z m480 0 c0 -10 -6 -19 -13 -19 -9 0 -9 5 -1 19 7 10 13 18 14 18 1
0 1 -8 0 -18z m160 0 c0 -10 -6 -19 -13 -19 -9 0 -9 5 -1 19 7 10 13 18 14 18
1 0 1 -8 0 -18z m1682 15 c-2 -1 -13 -9 -24 -17 -19 -14 -19 -14 -6 3 7 9 18
17 24 17 6 0 8 -1 6 -3z m-2979 -21 c0 -3 -4 -8 -10 -11 -5 -3 -10 -1 -10 4 0
6 5 11 10 11 6 0 10 -2 10 -4z m1820 -4 c0 -5 -7 -9 -15 -9 -8 0 -12 4 -9 9 3
4 9 8 15 8 5 0 9 -4 9 -8z m534 -32 c-6 -6 -10 -3 -10 10 0 13 4 16 10 10 7
-7 7 -13 0 -20z m46 26 c0 -2 -8 -10 -17 -17 -16 -13 -17 -12 -4 4 13 16 21
21 21 13z m-2480 -12 c0 -8 -19 -13 -24 -6 -3 5 1 9 9 9 8 0 15 -2 15 -3z
m816 -19 c1 -8 -1 -17 -5 -19 -4 -3 -7 6 -7 19 0 25 8 25 12 0z m184 21 c0 -2
-7 -7 -16 -10 -8 -3 -12 -2 -9 4 6 10 25 14 25 6z m456 -21 c1 -8 -1 -17 -5
-19 -4 -3 -7 6 -7 19 0 25 8 25 12 0z m184 21 c0 -2 -7 -7 -16 -10 -8 -3 -12
-2 -9 4 6 10 25 14 25 6z m100 -10 c0 -2 -8 -10 -17 -17 -16 -13 -17 -12 -4 4
13 16 21 21 21 13z m1279 -9 c8 -10 7 -14 -2 -14 -8 0 -14 6 -14 14 0 7 1 13
2 13 2 0 8 -6 14 -13z m-3001 -16 c-7 -9 -13 -18 -15 -20 -1 -2 -1 5 0 16 0
11 7 20 14 20 10 0 10 -4 1 -16z m39 12 c-4 -3 -2 -11 3 -18 7 -8 5 -12 -4
-12 -8 0 -12 7 -11 16 5 22 4 21 12 21 3 0 3 -3 0 -7z m493 2 c0 -2 -6 -8 -13
-14 -10 -8 -14 -7 -14 2 0 8 6 14 14 14 7 0 13 -1 13 -2z m70 -9 c-7 -7 -13
-7 -20 0 -6 6 -3 10 10 10 13 0 16 -4 10 -10z m80 0 c-7 -7 -13 -7 -20 0 -6 6
-3 10 10 10 13 0 16 -4 10 -10z m69 0 c9 -11 9 -16 -1 -22 -7 -4 -10 -4 -6 1
4 4 3 14 -3 22 -6 7 -9 13 -6 13 2 0 10 -6 16 -14z m255 6 c2 -4 -4 -8 -14 -8
-10 0 -16 4 -14 8 3 4 9 8 14 8 5 0 11 -4 14 -8z m81 -1 c-9 -8 -36 -10 -30
-2 2 4 11 8 20 8 8 0 13 -3 10 -6z m75 -5 c-7 -7 -13 -7 -20 0 -6 6 -3 10 10
10 13 0 16 -4 10 -10z m80 0 c-7 -7 -13 -7 -20 0 -6 6 -3 10 10 10 13 0 16 -4
10 -10z m80 0 c-7 -7 -13 -7 -20 0 -6 6 -3 10 10 10 13 0 16 -4 10 -10z m69 0
c9 -11 9 -16 -1 -22 -7 -4 -10 -4 -6 1 4 4 3 14 -3 22 -6 7 -9 13 -6 13 2 0
10 -6 16 -14z m255 6 c2 -4 -4 -8 -14 -8 -10 0 -16 4 -14 8 3 4 9 8 14 8 5 0
11 -4 14 -8z m193 -15 c1 -11 1 -18 0 -16 -2 2 -8 11 -15 20 -9 12 -9 16 1 16
7 0 14 -9 14 -20z m-883 -16 c-2 -3 -12 3 -22 13 -16 17 -16 18 5 5 12 -7 20
-15 17 -18z m640 0 c-2 -3 -12 3 -22 13 -16 17 -16 18 5 5 12 -7 20 -15 17
-18z m143 14 c0 -8 -4 -12 -9 -9 -5 3 -6 10 -3 15 9 13 12 11 12 -6z m41 -10
c-3 -3 -9 2 -12 12 -6 14 -5 15 5 6 7 -7 10 -15 7 -18z m658 -21 c1 -9 -1 -13
-4 -9 -4 4 -7 10 -7 13 0 4 -4 14 -9 22 -7 12 -6 13 4 3 8 -7 15 -20 16 -29z
m534 30 c0 -8 -19 -13 -24 -6 -3 5 1 9 9 9 8 0 15 -2 15 -3z m-3010 -25 c0 -5
-4 -9 -8 -9 -5 0 -9 7 -9 15 0 8 4 12 9 9 4 -3 8 -9 8 -15z m1920 7 c0 -2 -7
-7 -16 -10 -8 -3 -12 -2 -9 4 6 10 25 14 25 6z m600 -10 c-7 -7 -13 -7 -20 0
-6 6 -3 10 10 10 13 0 16 -4 10 -10z m-2464 -22 c1 -9 0 -13 -4 -10 -3 4 -7
14 -8 22 -1 9 0 13 4 10 3 -4 7 -14 8 -22z m1800 11 c-1 -8 -5 -17 -8 -21 -5
-4 -4 16 1 34 3 9 9 -1 7 -13z m664 -9 c0 -2 -8 -10 -17 -17 -16 -13 -17 -12
-4 4 13 16 21 21 21 13z m-580 -20 c0 -2 -8 -10 -17 -17 -16 -13 -17 -12 -4 4
13 16 21 21 21 13z m-1886 -18 c-3 -4 -11 -5 -19 -1 -21 7 -19 12 4 10 11 0
18 -5 15 -9z m1826 2 c0 -5 -2 -10 -4 -10 -3 0 -8 5 -11 10 -3 6 -1 10 4 10 6
0 11 -4 11 -10z m1164 -18 c2 -4 -4 -8 -14 -8 -10 0 -16 4 -14 8 3 4 9 8 14 8
5 0 11 -4 14 -8z m-2988 -17 c-1 -8 -5 -17 -8 -21 -5 -4 -4 16 1 34 3 9 9 -1
7 -13z m2398 -15 c-6 -6 -10 -3 -10 10 0 13 4 16 10 10 7 -7 7 -13 0 -20z m46
26 c0 -2 -8 -10 -17 -17 -16 -13 -17 -12 -4 4 13 16 21 21 21 13z m-556 -14
c3 -5 -1 -9 -9 -9 -8 0 -12 4 -9 9 3 4 7 8 9 8 2 0 6 -4 9 -8z m-1944 -23 c0
-5 -4 -9 -8 -9 -5 0 -9 7 -9 15 0 8 4 12 9 9 4 -3 8 -9 8 -15z m3078 -9 c-7
-10 -14 -17 -17 -15 -4 4 18 35 25 35 2 0 -1 -9 -8 -20z m-3002 -36 c1 -9 -1
-13 -4 -9 -4 4 -7 10 -7 13 0 4 -4 14 -9 22 -7 12 -6 13 4 3 8 -7 15 -20 16
-29z m1801 18 c0 -10 -6 -19 -13 -19 -9 0 -9 5 -1 19 7 10 13 18 14 18 1 0 1
-8 0 -18z m599 -18 c1 -9 -1 -13 -4 -9 -4 4 -7 10 -7 13 0 4 -4 14 -9 22 -7
12 -6 13 4 3 8 -7 15 -20 16 -29z m-523 -9 c-7 -21 -12 -19 -10 4 0 11 5 18 9
15 4 -3 5 -11 1 -19z m567 11 c-7 -7 -13 -7 -20 0 -6 6 -3 10 10 10 13 0 16
-4 10 -10z m501 -13 c13 -16 12 -17 -3 -4 -17 13 -22 21 -14 21 2 0 10 -8 17
-17z m75 -9 c1 -9 0 -13 -4 -10 -3 4 -7 14 -8 22 -1 9 0 13 4 10 3 -4 7 -14 8
-22z m-576 2 c0 -2 -8 -10 -17 -17 -16 -13 -17 -12 -4 4 13 16 21 21 21 13z
m-2450 -30 c0 -2 -8 -10 -17 -17 -16 -13 -17 -12 -4 4 13 16 21 21 21 13z
m1805 -6 c3 -5 1 -10 -4 -10 -6 0 -11 5 -11 10 0 6 2 10 4 10 3 0 8 -4 11 -10z
m59 2 c2 -4 -5 -9 -17 -9 -17 -2 -19 0 -7 7 18 12 18 12 24 2z m1076 2 c0 -8
-19 -13 -24 -6 -3 5 1 9 9 9 8 0 15 -2 15 -3z m65 -4 c3 -5 1 -10 -4 -10 -6 0
-11 5 -11 10 0 6 2 10 4 10 3 0 8 -4 11 -10z m-3070 -20 c-3 -5 -12 -10 -18
-10 -7 0 -6 4 3 10 19 12 23 12 15 0z m2449 -30 c-6 -6 -10 -3 -10 10 0 13 4
16 10 10 7 -7 7 -13 0 -20z m46 26 c0 -2 -8 -10 -17 -17 -16 -13 -17 -12 -4 4
13 16 21 21 21 13z m590 -11 c-7 -9 -15 -13 -18 -10 -3 3 -12 -1 -21 -8 -14
-11 -14 -10 -2 5 7 10 17 16 21 13 5 -3 11 -1 15 5 3 5 9 10 12 10 3 0 0 -7
-7 -15z m-70 -7 c0 -6 -3 -8 -7 -5 -3 4 -13 1 -22 -6 -14 -11 -14 -10 -2 6 15
20 31 22 31 5z m-2963 -31 c0 -7 -9 -14 -20 -14 -19 -2 -19 -2 -1 12 11 8 19
15 20 15 0 0 1 -6 1 -13z m1822 0 c-2 -2 -11 -8 -20 -15 -12 -9 -16 -9 -16 1
0 7 9 14 20 14 11 1 18 1 16 0z m597 -33 c1 -9 -1 -13 -4 -9 -4 4 -7 10 -7 13
0 4 -4 14 -9 22 -7 12 -6 13 4 3 8 -7 15 -20 16 -29z m604 26 c0 -5 -2 -10 -4
-10 -3 0 -8 5 -11 10 -3 6 -1 10 4 10 6 0 11 -4 11 -10z m-560 -24 c-7 -7 -13
-7 -20 0 -6 6 -3 10 10 10 13 0 16 -4 10 -10z m575 -24 c-3 -3 -11 0 -18 7 -9
10 -8 11 6 5 10 -3 15 -9 12 -12z m-1175 4 c0 -2 -8 -10 -17 -17 -16 -13 -17
-12 -4 4 13 16 21 21 21 13z m600 0 c0 -2 -8 -10 -17 -17 -16 -13 -17 -12 -4
4 13 16 21 21 21 13z m-2515 -16 c-3 -5 -12 -10 -18 -10 -7 0 -6 4 3 10 19 12
23 12 15 0z m3031 -5 c-1 -8 -5 -17 -8 -21 -5 -4 -4 16 1 34 3 9 9 -1 7 -13z
m-2296 1 c0 -2 -8 -10 -17 -17 -16 -13 -17 -12 -4 4 13 16 21 21 21 13z m160
0 c0 -2 -8 -10 -17 -17 -16 -13 -17 -12 -4 4 13 16 21 21 21 13z m160 0 c0 -2
-8 -10 -17 -17 -16 -13 -17 -12 -4 4 13 16 21 21 21 13z m160 0 c0 -2 -8 -10
-17 -17 -16 -13 -17 -12 -4 4 13 16 21 21 21 13z m160 0 c0 -2 -8 -10 -17 -17
-16 -13 -17 -12 -4 4 13 16 21 21 21 13z m160 0 c0 -2 -8 -10 -17 -17 -16 -13
-17 -12 -4 4 13 16 21 21 21 13z m160 0 c0 -2 -8 -10 -17 -17 -16 -13 -17 -12
-4 4 13 16 21 21 21 13z m160 0 c0 -2 -8 -10 -17 -17 -16 -13 -17 -12 -4 4 13
16 21 21 21 13z m-1827 -21 c4 -8 3 -16 -1 -19 -4 -3 -9 4 -9 15 -2 23 3 25
10 4z m47 0 c-5 -7 -8 -14 -5 -17 3 -2 -2 -5 -10 -5 -10 0 -12 4 -5 12 5 7 8
14 5 17 -3 2 2 5 10 5 10 0 12 -4 5 -12z m485 5 c-3 -5 -12 -10 -18 -10 -7 0
-6 4 3 10 19 12 23 12 15 0z m2514 7 c-2 -1 -13 -9 -24 -17 -19 -14 -19 -14
-6 3 7 9 18 17 24 17 6 0 8 -1 6 -3z m-625 -57 c-6 -6 -10 -3 -10 10 0 13 4
16 10 10 7 -7 7 -13 0 -20z m46 26 c0 -2 -8 -10 -17 -17 -16 -13 -17 -12 -4 4
13 16 21 21 21 13z m-1840 -12 c0 -8 -19 -13 -24 -6 -3 5 1 9 9 9 8 0 15 -2
15 -3z m160 0 c0 -8 -19 -13 -24 -6 -3 5 1 9 9 9 8 0 15 -2 15 -3z m160 0 c0
-8 -19 -13 -24 -6 -3 5 1 9 9 9 8 0 15 -2 15 -3z m160 0 c0 -8 -19 -13 -24 -6
-3 5 1 9 9 9 8 0 15 -2 15 -3z m160 0 c0 -8 -19 -13 -24 -6 -3 5 1 9 9 9 8 0
15 -2 15 -3z m160 0 c0 -8 -19 -13 -24 -6 -3 5 1 9 9 9 8 0 15 -2 15 -3z m160
0 c0 -8 -19 -13 -24 -6 -3 5 1 9 9 9 8 0 15 -2 15 -3z m1452 -5 c2 -2 1 -3 -1
-2 -2 2 -9 -2 -16 -7 -8 -7 -12 -5 -12 4 0 12 22 16 29 5z m-3034 -28 c-7 -9
-13 -18 -15 -20 -1 -2 -1 5 0 16 0 11 7 20 14 20 10 0 10 -4 1 -16z m39 12
c-4 -3 -2 -11 3 -18 7 -8 5 -12 -4 -12 -8 0 -12 7 -11 16 5 22 4 21 12 21 3 0
3 -3 0 -7z m601 -12 c-7 -9 -13 -18 -15 -20 -1 -2 -1 5 0 16 0 11 7 20 14 20
10 0 10 -4 1 -16z m52 13 c0 -8 -19 -13 -24 -6 -3 5 1 9 9 9 8 0 15 -2 15 -3z
m27 -16 c2 -17 0 -19 -7 -8 -5 8 -6 18 -4 22 8 12 10 10 11 -14z m81 3 c-7 -9
-13 -18 -15 -20 -1 -2 -1 5 0 16 0 11 7 20 14 20 10 0 10 -4 1 -16z m52 13 c0
-8 -19 -13 -24 -6 -3 5 1 9 9 9 8 0 15 -2 15 -3z m27 -16 c2 -17 0 -19 -7 -8
-5 8 -6 18 -4 22 8 12 10 10 11 -14z m81 3 c-7 -9 -13 -18 -15 -20 -1 -2 -1 5
0 16 0 11 7 20 14 20 10 0 10 -4 1 -16z m52 13 c0 -8 -19 -13 -24 -6 -3 5 1 9
9 9 8 0 15 -2 15 -3z m27 -16 c2 -17 0 -19 -7 -8 -5 8 -6 18 -4 22 8 12 10 10
11 -14z m81 3 c-7 -9 -13 -18 -15 -20 -1 -2 -1 5 0 16 0 11 7 20 14 20 10 0
10 -4 1 -16z m52 13 c0 -8 -19 -13 -24 -6 -3 5 1 9 9 9 8 0 15 -2 15 -3z m27
-16 c2 -17 0 -19 -7 -8 -5 8 -6 18 -4 22 8 12 10 10 11 -14z m81 3 c-7 -9 -13
-18 -15 -20 -1 -2 -1 5 0 16 0 11 7 20 14 20 10 0 10 -4 1 -16z m52 13 c0 -8
-19 -13 -24 -6 -3 5 1 9 9 9 8 0 15 -2 15 -3z m27 -16 c2 -17 0 -19 -7 -8 -5
8 -6 18 -4 22 8 12 10 10 11 -14z m81 3 c-7 -9 -13 -18 -15 -20 -1 -2 -1 5 0
16 0 11 7 20 14 20 10 0 10 -4 1 -16z m52 13 c0 -8 -19 -13 -24 -6 -3 5 1 9 9
9 8 0 15 -2 15 -3z m27 -16 c2 -17 0 -19 -7 -8 -5 8 -6 18 -4 22 8 12 10 10
11 -14z m81 3 c-7 -9 -13 -18 -15 -20 -1 -2 -1 5 0 16 0 11 7 20 14 20 10 0
10 -4 1 -16z m52 13 c0 -8 -19 -13 -24 -6 -3 5 1 9 9 9 8 0 15 -2 15 -3z m27
-16 c2 -17 0 -19 -7 -8 -5 8 -6 18 -4 22 8 12 10 10 11 -14z m43 8 c-7 -7 -13
-7 -20 0 -6 6 -3 10 10 10 13 0 16 -4 10 -10z m75 6 c-3 -3 0 -10 5 -17 7 -8
5 -12 -5 -12 -8 0 -13 3 -10 5 3 3 0 10 -5 17 -7 8 -5 12 5 12 8 0 13 -3 10
-5z m641 -48 c1 -9 -1 -13 -4 -9 -4 4 -7 10 -7 13 0 4 -4 14 -9 22 -7 12 -6
13 4 3 8 -7 15 -20 16 -29z m604 26 c0 -5 -2 -10 -4 -10 -3 0 -8 5 -11 10 -3
6 -1 10 4 10 6 0 11 -4 11 -10z m-3080 -21 c0 -5 -4 -9 -8 -9 -5 0 -9 7 -9 15
0 8 4 12 9 9 4 -3 8 -9 8 -15z m2520 -3 c-7 -7 -13 -7 -20 0 -6 6 -3 10 10 10
13 0 16 -4 10 -10z m-2464 -22 c1 -9 0 -13 -4 -10 -3 4 -7 14 -8 22 -1 9 0 13
4 10 3 -4 7 -14 8 -22z m3039 -2 c-3 -3 -11 0 -18 7 -9 10 -8 11 6 5 10 -3 15
-9 12 -12z m-575 4 c0 -2 -8 -10 -17 -17 -16 -13 -17 -12 -4 4 13 16 21 21 21
13z m516 -21 c-1 -8 -5 -17 -8 -21 -5 -4 -4 16 1 34 3 9 9 -1 7 -13z m-2982
-17 c-3 -4 -11 -5 -19 -1 -21 7 -19 12 4 10 11 0 18 -5 15 -9z m545 9 c-2 -2
-11 -8 -20 -15 -12 -9 -16 -9 -16 1 0 7 9 14 20 14 11 1 18 1 16 0z m2480 0
c-2 -1 -13 -9 -24 -17 -19 -14 -19 -14 -6 3 7 9 18 17 24 17 6 0 8 -1 6 -3z
m-2444 -35 c-3 -3 -11 0 -18 7 -9 10 -8 11 6 5 10 -3 15 -9 12 -12z m-579 -7
c-1 -8 -5 -17 -8 -21 -5 -4 -4 16 1 34 3 9 9 -1 7 -13z m2398 -15 c-6 -6 -10
-3 -10 10 0 13 4 16 10 10 7 -7 7 -13 0 -20z m46 26 c0 -2 -8 -10 -17 -17 -16
-13 -17 -12 -4 4 13 16 21 21 21 13z m-2500 -37 c0 -5 -4 -9 -8 -9 -5 0 -9 7
-9 15 0 8 4 12 9 9 4 -3 8 -9 8 -15z m638 -4 c-3 -3 -9 2 -12 12 -6 14 -5 15
5 6 7 -7 10 -15 7 -18z m2401 12 c8 -10 7 -14 -2 -14 -8 0 -14 6 -14 14 0 7 1
13 2 13 2 0 8 -6 14 -13z m-2472 -25 c-10 -10 -14 -22 -10 -27 5 -4 2 -5 -5
-1 -11 6 -10 12 4 27 9 10 19 19 22 19 3 0 -2 -8 -11 -18z m-491 -28 c1 -9 -1
-13 -4 -9 -4 4 -7 10 -7 13 0 4 -4 14 -9 22 -7 12 -6 13 4 3 8 -7 15 -20 16
-29z m2400 0 c1 -9 -1 -13 -4 -9 -4 4 -7 10 -7 13 0 4 -4 14 -9 22 -7 12 -6
13 4 3 8 -7 15 -20 16 -29z m534 30 c0 -8 -19 -13 -24 -6 -3 5 1 9 9 9 8 0 15
-2 15 -3z m-490 -28 c-7 -7 -13 -7 -20 0 -6 6 -3 10 10 10 13 0 16 -4 10 -10z
m0 -20 c0 -2 -8 -10 -17 -17 -16 -13 -17 -12 -4 4 13 16 21 21 21 13z m-1923
-29 c1 -11 1 -18 0 -16 -2 2 -8 11 -15 20 -9 12 -9 16 1 16 7 0 14 -9 14 -20z
m-527 -1 c0 -2 -8 -10 -17 -17 -16 -13 -17 -12 -4 4 13 16 21 21 21 13z m567
-21 c0 -8 -4 -15 -9 -15 -10 0 -11 14 -1 23 9 10 10 9 10 -8z m-632 -5 c-3 -5
-12 -10 -18 -10 -7 0 -6 4 3 10 19 12 23 12 15 0z m3039 2 c2 -4 -4 -8 -14 -8
-10 0 -16 4 -14 8 3 4 9 8 14 8 5 0 11 -4 14 -8z m-2468 -17 c-1 -8 -5 -17 -8
-21 -5 -4 -4 16 1 34 3 9 9 -1 7 -13z m1878 -15 c-6 -6 -10 -3 -10 10 0 13 4
16 10 10 7 -7 7 -13 0 -20z m46 26 c0 -2 -8 -10 -17 -17 -16 -13 -17 -12 -4 4
13 16 21 21 21 13z m578 -46 c-7 -10 -14 -17 -17 -15 -4 4 18 35 25 35 2 0 -1
-9 -8 -20z m-3021 -3 c0 -7 -9 -14 -20 -14 -19 -2 -19 -2 -1 12 11 8 19 15 20
15 0 0 1 -6 1 -13z m543 -2 c0 -7 -30 -13 -34 -7 -3 4 4 9 15 9 10 1 19 0 19
-2z m1876 -31 c1 -9 -1 -13 -4 -9 -4 4 -7 10 -7 13 0 4 -4 14 -9 22 -7 12 -6
13 4 3 8 -7 15 -20 16 -29z m44 2 c-7 -7 -13 -7 -20 0 -6 6 -3 10 10 10 13 0
16 -4 10 -10z m-1944 -22 c1 -9 0 -13 -4 -10 -3 4 -7 14 -8 22 -1 9 0 13 4 10
3 -4 7 -14 8 -22z m2445 9 c13 -16 12 -17 -3 -4 -17 13 -22 21 -14 21 2 0 10
-8 17 -17z m75 -9 c1 -9 0 -13 -4 -10 -3 4 -7 14 -8 22 -1 9 0 13 4 10 3 -4 7
-14 8 -22z m-576 2 c0 -2 -8 -10 -17 -17 -16 -13 -17 -12 -4 4 13 16 21 21 21
13z m-2515 -16 c-3 -5 -12 -10 -18 -10 -7 0 -6 4 3 10 19 12 23 12 15 0z m28
-25 c4 -8 3 -16 -1 -19 -4 -3 -9 4 -9 15 -2 23 3 25 10 4z m47 0 c-5 -7 -8
-14 -5 -17 3 -2 -2 -5 -10 -5 -10 0 -12 4 -5 12 5 7 8 14 5 17 -3 2 2 5 10 5
10 0 12 -4 5 -12z m485 5 c-3 -5 -12 -10 -18 -10 -7 0 -6 4 3 10 19 12 23 12
15 0z m2445 4 c0 -8 -19 -13 -24 -6 -3 5 1 9 9 9 8 0 15 -2 15 -3z m65 -4 c3
-5 1 -10 -4 -10 -6 0 -11 5 -11 10 0 6 2 10 4 10 3 0 8 -4 11 -10z m-621 -50
c-6 -6 -10 -3 -10 10 0 13 4 16 10 10 7 -7 7 -13 0 -20z m46 26 c0 -2 -8 -10
-17 -17 -16 -13 -17 -12 -4 4 13 16 21 21 21 13z m590 -11 c-7 -9 -15 -13 -18
-10 -3 3 -12 -1 -21 -8 -14 -11 -14 -10 -2 5 7 10 17 16 21 13 5 -3 11 -1 15
5 3 5 9 10 12 10 3 0 0 -7 -7 -15z m-70 -7 c0 -6 -3 -8 -7 -5 -3 4 -13 1 -22
-6 -14 -11 -14 -10 -2 6 15 20 31 22 31 5z m-2982 -27 c-7 -9 -13 -18 -15 -20
-1 -2 -1 5 0 16 0 11 7 20 14 20 10 0 10 -4 1 -16z m39 12 c-4 -3 -2 -11 3
-18 7 -8 5 -12 -4 -12 -8 0 -12 7 -11 16 5 22 4 21 12 21 3 0 3 -3 0 -7z m558
-11 c-3 -3 -11 0 -18 7 -9 10 -8 11 6 5 10 -3 15 -9 12 -12z m1841 -38 c1 -9
-1 -13 -4 -9 -4 4 -7 10 -7 13 0 4 -4 14 -9 22 -7 12 -6 13 4 3 8 -7 15 -20
16 -29z m604 26 c0 -5 -2 -10 -4 -10 -3 0 -8 5 -11 10 -3 6 -1 10 4 10 6 0 11
-4 11 -10z m-3080 -20 c0 -5 -5 -10 -11 -10 -5 0 -7 5 -4 10 3 6 8 10 11 10 2
0 4 -4 4 -10z m2520 -4 c-7 -7 -13 -7 -20 0 -6 6 -3 10 10 10 13 0 16 -4 10
-10z m-2464 -22 c1 -9 0 -13 -4 -10 -3 4 -7 14 -8 22 -1 9 0 13 4 10 3 -4 7
-14 8 -22z m3039 -2 c-3 -3 -11 0 -18 7 -9 10 -8 11 6 5 10 -3 15 -9 12 -12z
m-575 4 c0 -2 -8 -10 -17 -17 -16 -13 -17 -12 -4 4 13 16 21 21 21 13z m516
-21 c-1 -8 -5 -17 -8 -21 -5 -4 -4 16 1 34 3 9 9 -1 7 -13z m-2982 -17 c-3 -4
-11 -5 -19 -1 -21 7 -19 12 4 10 11 0 18 -5 15 -9z m545 9 c-2 -2 -11 -8 -20
-15 -12 -9 -16 -9 -16 1 0 7 9 14 20 14 11 1 18 1 16 0z m2480 0 c-2 -1 -13
-9 -24 -17 -19 -14 -19 -14 -6 3 7 9 18 17 24 17 6 0 8 -1 6 -3z m-2443 -33
c-1 -8 -6 -17 -12 -21 -5 -4 -6 -4 -2 1 4 5 3 14 -2 21 -7 8 -5 12 4 12 8 0
13 -6 12 -13z m-586 -9 c-7 -9 -15 -13 -18 -10 -3 3 -12 -1 -21 -8 -14 -11
-14 -10 -2 5 7 10 17 16 21 13 5 -3 11 -1 15 5 3 5 9 10 12 10 3 0 0 -7 -7
-15z m2406 -11 c1 -9 0 -13 -4 -10 -3 4 -7 14 -8 22 -1 9 0 13 4 10 3 -4 7
-14 8 -22z m608 4 c-3 -4 -9 -8 -15 -8 -5 0 -9 4 -9 8 0 5 7 9 15 9 8 0 12 -4
9 -9z m-2497 -36 c-10 -10 -14 -22 -10 -27 5 -4 2 -5 -5 -1 -11 6 -10 12 4 27
9 10 19 19 22 19 3 0 -2 -8 -11 -18z m-527 -7 c0 -2 -9 -3 -19 -2 -11 0 -18 5
-15 9 4 6 34 0 34 -7z m3051 -2 c13 -17 13 -17 -6 -3 -11 8 -22 16 -24 17 -2
2 0 3 6 3 6 0 17 -8 24 -17z m-574 -21 c-17 -18 -51 -27 -41 -10 3 5 9 6 14 3
4 -3 13 2 20 10 7 8 15 15 18 15 3 0 -2 -8 -11 -18z m528 9 c-9 -8 -36 -10
-30 -2 2 4 11 8 20 8 8 0 13 -3 10 -6z m-2988 -16 c0 -8 -4 -15 -9 -15 -10 0
-11 14 -1 23 9 10 10 9 10 -8z m2399 0 c-1 -8 -5 -17 -8 -21 -5 -4 -4 16 1 34
3 9 9 -1 7 -13z m650 -7 c3 -4 -1 -5 -10 -4 -8 1 -18 5 -22 8 -3 4 1 5 10 4 8
-1 18 -5 22 -8z m-2509 -31 c1 -11 1 -18 0 -16 -2 2 -8 11 -15 20 -9 12 -9 16
1 16 7 0 14 -9 14 -20z m2402 -11 c-3 -3 -11 5 -18 17 -13 21 -12 21 5 5 10
-10 16 -20 13 -22z m-465 -6 c-6 -6 -10 -3 -10 10 0 13 4 16 10 10 7 -7 7 -13
0 -20z m-2495 17 c-2 -2 -11 -8 -20 -15 -12 -9 -16 -9 -16 1 0 7 9 14 20 14
11 1 18 1 16 0z m598 -22 c0 -8 -4 -15 -9 -15 -10 0 -11 14 -1 23 9 10 10 9
10 -8z m-562 -13 c-3 -3 -11 0 -18 7 -9 10 -8 11 6 5 10 -3 15 -9 12 -12z
m2975 -7 c5 3 11 1 14 -4 4 -5 0 -8 -6 -7 -21 3 -38 16 -38 29 0 7 5 4 11 -6
6 -9 14 -15 19 -12z m-2474 0 c-1 -8 -5 -17 -8 -21 -5 -4 -4 16 1 34 3 9 9 -1
7 -13z m-565 -18 c-10 -9 -11 -8 -5 6 3 10 9 15 12 12 3 -3 0 -11 -7 -18z
m2506 -19 c2 -17 0 -19 -7 -8 -5 8 -6 18 -4 22 8 12 10 10 11 -14z m38 4 c-3
-3 -11 0 -18 7 -9 10 -8 11 6 5 10 -3 15 -9 12 -12z m523 -2 c-7 -10 -14 -17
-17 -15 -4 4 18 35 25 35 2 0 -1 -9 -8 -20z m-3038 -15 c0 -2 -9 -3 -19 -2
-11 0 -18 5 -15 9 4 6 34 0 34 -7z m560 10 c0 -7 -30 -13 -34 -7 -3 4 4 9 15
9 10 1 19 0 19 -2z m1960 -9 c0 -2 -8 -10 -17 -17 -16 -13 -17 -12 -4 4 13 16
21 21 21 13z m480 -14 c0 -5 -7 -9 -15 -9 -8 0 -12 4 -9 9 3 4 9 8 15 8 5 0 9
-4 9 -8z m-2983 -17 c0 -8 -4 -15 -9 -15 -10 0 -11 14 -1 23 9 10 10 9 10 -8z
m519 -11 c1 -9 0 -13 -4 -10 -3 4 -7 14 -8 22 -1 9 0 13 4 10 3 -4 7 -14 8
-22z m2520 0 c1 -9 0 -13 -4 -10 -3 4 -7 14 -8 22 -1 9 0 13 4 10 3 -4 7 -14
8 -22z m-97 -38 c-3 -3 -11 5 -18 17 -13 21 -12 21 5 5 10 -10 16 -20 13 -22z
m-2960 11 c-2 -2 -11 -8 -20 -15 -12 -9 -16 -9 -16 1 0 7 9 14 20 14 11 1 18
1 16 0z m526 -7 c-3 -5 -12 -10 -18 -10 -7 0 -6 4 3 10 19 12 23 12 15 0z
m1954 7 c-2 -2 -11 -8 -20 -15 -12 -9 -16 -9 -16 1 0 7 9 14 20 14 11 1 18 1
16 0z m556 -7 c3 -5 1 -10 -4 -10 -6 0 -11 5 -11 10 0 6 2 10 4 10 3 0 8 -4
11 -10z m-3000 -28 c-3 -3 -11 0 -18 7 -9 10 -8 11 6 5 10 -3 15 -9 12 -12z
m2480 0 c-3 -3 -11 0 -18 7 -9 10 -8 11 6 5 10 -3 15 -9 12 -12z m535 -7 c-7
-9 -15 -13 -18 -10 -3 3 -12 -1 -21 -8 -14 -11 -14 -10 -2 5 7 10 17 16 21 13
5 -3 11 -1 15 5 3 5 9 10 12 10 3 0 0 -7 -7 -15z m-3079 -18 c-10 -9 -11 -8
-5 6 3 10 9 15 12 12 3 -3 0 -11 -7 -18z m2980 0 c-10 -9 -11 -8 -5 6 3 10 9
15 12 12 3 -3 0 -11 -7 -18z m-431 9 c0 -2 -8 -10 -17 -17 -16 -13 -17 -12 -4
4 13 16 21 21 21 13z m-1925 -24 c-3 -3 -11 0 -18 7 -9 10 -8 11 6 5 10 -3 15
-9 12 -12z m1865 4 c0 -2 -8 -10 -17 -17 -16 -13 -17 -12 -4 4 13 16 21 21 21
13z m-2460 -21 c0 -2 -9 -3 -19 -2 -11 0 -18 5 -15 9 4 6 34 0 34 -7z m3040 5
c0 -5 -2 -10 -4 -10 -3 0 -8 5 -11 10 -3 6 -1 10 4 10 6 0 11 -4 11 -10z
m-3023 -35 c0 -8 -4 -15 -9 -15 -10 0 -11 14 -1 23 9 10 10 9 10 -8z m3038
-13 c-3 -3 -11 0 -18 7 -9 10 -8 11 6 5 10 -3 15 -9 12 -12z m-577 -21 c-7 -9
-13 -18 -15 -20 -1 -2 -1 5 0 16 0 11 7 20 14 20 10 0 10 -4 1 -16z m518 4
c-1 -8 -5 -17 -8 -21 -5 -4 -4 16 1 34 3 9 9 -1 7 -13z m-2997 -8 c-2 -2 -11
-8 -20 -15 -12 -9 -16 -9 -16 1 0 7 9 14 20 14 11 1 18 1 16 0z m560 0 c-2 -2
-11 -8 -20 -15 -12 -9 -16 -9 -16 1 0 7 9 14 20 14 11 1 18 1 16 0z m2480 0
c-2 -1 -13 -9 -24 -17 -19 -14 -19 -14 -6 3 7 9 18 17 24 17 6 0 8 -1 6 -3z
m-3004 -35 c-3 -3 -11 0 -18 7 -9 10 -8 11 6 5 10 -3 15 -9 12 -12z m561 2
c-1 -8 -6 -17 -12 -21 -5 -4 -6 -4 -2 1 4 5 3 14 -2 21 -7 8 -5 12 4 12 8 0
13 -6 12 -13z m1820 -14 c0 -12 -4 -16 -9 -11 -5 5 -6 14 -3 20 10 15 12 14
12 -9z m78 -10 c-6 -6 -10 -3 -10 10 0 13 4 16 10 10 7 -7 7 -13 0 -20z
m-2523 -3 c-10 -9 -11 -8 -5 6 3 10 9 15 12 12 3 -3 0 -11 -7 -18z m3028 0 c8
-10 7 -14 -2 -14 -8 0 -14 6 -14 14 0 7 1 13 2 13 2 0 8 -6 14 -13z m-2472
-25 c-10 -10 -14 -22 -10 -27 5 -4 2 -5 -5 -1 -11 6 -10 12 4 27 9 10 19 19
22 19 3 0 -2 -8 -11 -18z m-527 -7 c0 -2 -9 -3 -19 -2 -11 0 -18 5 -15 9 4 6
34 0 34 -7z m2970 9 c0 -8 -19 -13 -24 -6 -3 5 1 9 9 9 8 0 15 -2 15 -3z
m-493 -32 c-17 -18 -51 -27 -41 -10 3 5 9 6 14 3 4 -3 13 2 20 10 7 8 15 15
18 15 3 0 -2 -8 -11 -18z m-2460 -7 c0 -8 -4 -15 -9 -15 -10 0 -11 14 -1 23 9
10 10 9 10 -8z m2399 0 c-1 -8 -5 -17 -8 -21 -5 -4 -4 16 1 34 3 9 9 -1 7 -13z
m-1891 -25 c-3 -5 -12 -10 -18 -10 -7 0 -6 4 3 10 19 12 23 12 15 0z m28 -15
c-7 -21 -12 -19 -10 4 0 11 5 18 9 15 4 -3 5 -11 1 -19z m42 7 c-3 -3 -11 0
-18 7 -9 10 -8 11 6 5 10 -3 15 -9 12 -12z m1899 -22 c-6 -6 -10 -3 -10 10 0
13 4 16 10 10 7 -7 7 -13 0 -20z m-2495 17 c-2 -2 -11 -8 -20 -15 -12 -9 -16
-9 -16 1 0 7 9 14 20 14 11 1 18 1 16 0z m36 -35 c-3 -3 -11 0 -18 7 -9 10 -8
11 6 5 10 -3 15 -9 12 -12z m2969 10 c2 -4 -4 -8 -14 -8 -10 0 -16 4 -14 8 3
4 9 8 14 8 5 0 11 -4 14 -8z m-2493 -29 c17 -20 18 -23 3 -10 -11 9 -23 15
-26 12 -2 -3 -5 2 -5 10 0 19 -1 20 28 -12z m2001 15 c-14 -14 -44 -20 -36 -7
3 5 9 7 14 4 5 -3 11 -1 15 5 3 5 9 10 13 10 3 0 1 -5 -6 -12z m-2506 -10 c3
-4 -1 -5 -10 -4 -8 1 -18 5 -22 8 -3 4 1 5 10 4 8 -1 18 -5 22 -8z m2465 -25
c13 -16 12 -17 -3 -4 -10 7 -18 15 -18 17 0 8 8 3 21 -13z m568 -17 c-3 -3
-11 5 -18 17 -13 21 -12 21 5 5 10 -10 16 -20 13 -22z m-3002 -21 c0 -8 -4
-12 -9 -9 -5 4 -7 9 -4 12 3 3 -2 15 -11 26 -18 21 -18 21 3 3 11 -9 21 -24
21 -32z m2600 10 c0 -8 -4 -12 -9 -9 -5 3 -6 10 -3 15 9 13 12 11 12 -6z m281
-10 c-3 -3 -9 2 -12 12 -6 14 -5 15 5 6 7 -7 10 -15 7 -18z m-394 3 c-3 -4 -9
-8 -15 -8 -5 0 -9 4 -9 8 0 5 7 9 15 9 8 0 12 -4 9 -9z m150 -4 c3 -8 2 -12
-4 -9 -6 3 -10 10 -10 16 0 14 7 11 14 -7z m-218 -9 c-1 -8 -5 -17 -8 -21 -5
-4 -4 16 1 34 3 9 9 -1 7 -13z m120 -11 c1 -9 0 -13 -4 -10 -3 4 -7 14 -8 22
-1 9 0 13 4 10 3 -4 7 -14 8 -22z m162 1 c-3 -3 -9 2 -12 12 -6 14 -5 15 5 6
7 -7 10 -15 7 -18z m282 21 c0 -2 -8 -10 -17 -17 -16 -13 -17 -12 -4 4 13 16
21 21 21 13z m-2475 -16 c3 -6 -1 -7 -9 -4 -18 7 -21 14 -7 14 6 0 13 -4 16
-10z m2066 -13 c-10 -9 -11 -8 -5 6 3 10 9 15 12 12 3 -3 0 -11 -7 -18z m349
11 c0 -6 -3 -8 -7 -5 -3 4 -13 1 -22 -6 -14 -11 -14 -10 -2 6 15 20 31 22 31
5z m-220 -22 c0 -2 -8 -10 -17 -17 -16 -13 -17 -12 -4 4 13 16 21 21 21 13z
m160 0 c0 -2 -8 -10 -17 -17 -16 -13 -17 -12 -4 4 13 16 21 21 21 13z m-2870
-10 c0 -2 -8 -10 -17 -17 -16 -13 -17 -12 -4 4 13 16 21 21 21 13z m544 -4 c2
-4 -5 -9 -17 -9 -17 -2 -19 0 -7 7 18 12 18 12 24 2z m2000 0 c2 -4 -5 -9 -17
-9 -17 -2 -19 0 -7 7 18 12 18 12 24 2z m216 4 c0 -2 -8 -10 -17 -17 -16 -13
-17 -12 -4 4 13 16 21 21 21 13z m170 -11 c0 -2 -9 -3 -19 -2 -11 0 -18 5 -15
9 4 6 34 0 34 -7z m60 9 c0 -8 -19 -13 -24 -6 -3 5 1 9 9 9 8 0 15 -2 15 -3z
m-2516 -22 c3 -5 -1 -9 -9 -9 -8 0 -12 4 -9 9 3 4 7 8 9 8 2 0 6 -4 9 -8z m73
-17 c0 -8 -3 -13 -5 -10 -3 3 -12 -1 -21 -7 -10 -8 -9 -4 3 10 23 26 23 26 23
7z m2000 0 c0 -8 -4 -12 -9 -9 -5 3 -6 10 -3 15 9 13 12 11 12 -6z m123 -5 c0
-5 -2 -10 -4 -10 -3 0 -8 5 -11 10 -3 6 -1 10 4 10 6 0 11 -4 11 -10z m-2179
-17 c13 -16 12 -17 -3 -4 -10 7 -18 15 -18 17 0 8 8 3 21 -13z m-504 -16 c0
-7 -9 -14 -20 -14 -19 -2 -19 -2 -1 12 11 8 19 15 20 15 0 0 1 -6 1 -13z m528
-47 c3 -6 -1 -7 -9 -4 -18 7 -21 14 -7 14 6 0 13 -4 16 -10z m-552 -45 c4 -8
3 -16 -1 -19 -4 -3 -9 4 -9 15 -2 23 3 25 10 4z m47 0 c-5 -7 -8 -14 -5 -17 3
-2 -2 -5 -10 -5 -10 0 -12 4 -5 12 5 7 8 14 5 17 -3 2 2 5 10 5 10 0 12 -4 5
-12z m534 7 c2 -4 -5 -9 -17 -9 -17 -2 -19 0 -7 7 18 12 18 12 24 2z m-70 -20
c3 -5 -1 -9 -9 -9 -8 0 -12 4 -9 9 3 4 7 8 9 8 2 0 6 -4 9 -8z m73 -17 c0 -8
-3 -13 -5 -10 -3 3 -12 -1 -21 -7 -10 -8 -9 -4 3 10 23 26 23 26 23 7z m-56
-22 c13 -16 12 -17 -3 -4 -10 7 -18 15 -18 17 0 8 8 3 21 -13z m-523 -12 c-7
-9 -13 -18 -15 -20 -1 -2 -1 5 0 16 0 11 7 20 14 20 10 0 10 -4 1 -16z m39 12
c-4 -3 -2 -11 3 -18 7 -8 5 -12 -4 -12 -8 0 -12 7 -11 16 5 22 4 21 12 21 3 0
3 -3 0 -7z m-21 -69 c1 -9 0 -13 -4 -10 -3 4 -7 14 -8 22 -1 9 0 13 4 10 3 -4
7 -14 8 -22z m529 6 c3 -6 -1 -7 -9 -4 -18 7 -21 14 -7 14 6 0 13 -4 16 -10z
m-531 -42 c-3 -4 -11 -5 -19 -1 -21 7 -19 12 4 10 11 0 18 -5 15 -9z m560 4
c2 -4 -5 -9 -17 -9 -17 -2 -19 0 -7 7 18 12 18 12 24 2z m-70 -20 c3 -5 -1 -9
-9 -9 -8 0 -12 4 -9 9 3 4 7 8 9 8 2 0 6 -4 9 -8z m-488 -17 c-1 -8 -5 -17 -8
-21 -5 -4 -4 16 1 34 3 9 9 -1 7 -13z m561 0 c0 -8 -3 -13 -5 -10 -3 3 -12 -1
-21 -7 -10 -8 -9 -4 3 10 23 26 23 26 23 7z m-56 -22 c13 -16 12 -17 -3 -4
-10 7 -18 15 -18 17 0 8 8 3 21 -13z m-485 -49 c1 -9 -1 -13 -4 -9 -4 4 -7 10
-7 13 0 4 -4 14 -9 22 -7 12 -6 13 4 3 8 -7 15 -20 16 -29z m509 -14 c3 -6 -1
-7 -9 -4 -18 7 -21 14 -7 14 6 0 13 -4 16 -10z m-465 -4 c0 -2 -8 -10 -17 -17
-16 -13 -17 -12 -4 4 13 16 21 21 21 13z m321 -13 c13 -16 12 -17 -3 -4 -10 7
-18 15 -18 17 0 8 8 3 21 -13z m-403 -12 c-7 -9 -13 -18 -15 -20 -1 -2 -1 5 0
16 0 11 7 20 14 20 10 0 10 -4 1 -16z m276 10 c3 -4 -4 -17 -17 -27 -22 -19
-22 -19 -4 2 9 11 14 24 10 27 -3 4 -4 7 0 7 3 0 8 -4 11 -9z m203 -14 c1 -11
1 -18 0 -16 -2 2 -8 11 -15 20 -9 12 -9 16 1 16 7 0 14 -9 14 -20z m-318 0
c-2 -2 -11 -8 -20 -15 -12 -9 -16 -9 -16 1 0 7 9 14 20 14 11 1 18 1 16 0z
m415 -5 c2 -4 -5 -9 -17 -9 -17 -2 -19 0 -7 7 18 12 18 12 24 2z m-218 -17
c-1 -8 -5 -17 -8 -21 -5 -4 -4 16 1 34 3 9 9 -1 7 -13z m58 -35 c-6 -6 -10 -3
-10 10 0 13 4 16 10 10 7 -7 7 -13 0 -20z m42 10 c0 -12 -4 -16 -9 -11 -5 5
-6 14 -3 20 10 15 12 14 12 -9z m-259 -45 c0 -8 -4 -12 -9 -9 -4 3 -8 9 -8 15
0 5 4 9 8 9 5 0 9 -7 9 -15z m54 -2 c13 -16 12 -17 -3 -4 -10 7 -18 15 -18 17
0 8 8 3 21 -13z m64 8 c3 -5 2 -12 -3 -15 -5 -3 -9 1 -9 9 0 17 3 19 12 6z
m122 -6 c0 -8 -4 -12 -9 -9 -4 3 -8 9 -8 15 0 5 4 9 8 9 5 0 9 -7 9 -15z"/>
</g>
</svg>
